<?xml version="1.0" standalone="no"?>
<svg xmlns="http://www.w3.org/2000/svg" viewBox="0 0 197.352 36" width="197.352" height="36"><g fill="#cc0000" color="#cc0000" transform="translate(0 3.9999999999999982) scale(0.2800001)"><svg width="100.0" height="100.0" x="0.0" y="0.0" viewBox="0 0 100 100"><g><path d="M34.909,35.183c-16.34,0-29.634,13.294-29.634,29.634c0,16.341,13.294,29.634,29.634,29.634s29.634-13.293,29.634-29.634   C64.543,48.477,51.249,35.183,34.909,35.183z M34.909,77.531c-7.011,0-12.715-5.703-12.715-12.714   c0-7.013,5.704-12.717,12.715-12.717c7.012,0,12.717,5.704,12.717,12.717C47.625,71.828,41.92,77.531,34.909,77.531z"></path><circle cx="34.909" cy="64.816" r="6.475"></circle></g><g><path fill="currentColor" d="M63.665,36.853c-1.338-1.378-3.114-2.136-5-2.136c-3.007,0-5.599,1.839-6.614,4.605   c3.53,2.382,6.536,5.481,8.819,9.082c2.221-0.742,3.904-2.497,4.535-4.795C66.073,41.185,65.423,38.66,63.665,36.853z"></path><path fill="currentColor" d="M94.177,5H46.763C33.389,5,22.507,15.881,22.507,29.256v7.452c3.796-1.681,7.99-2.623,12.401-2.623   c1.961,0,3.877,0.192,5.737,0.545l-1.191-1.043c-0.146-0.127-0.183-0.339-0.089-0.508c0.851-1.542,1.828-3.007,2.902-4.354   c1.068-1.341,2.281-2.619,3.602-3.8c0.145-0.128,0.359-0.14,0.516-0.025l3.658,2.657c0.909-0.546,1.834-0.992,2.812-1.353   l0.205-4.516c0.008-0.193,0.149-0.354,0.341-0.387c3.445-0.597,6.985-0.597,10.431,0c0.19,0.033,0.332,0.194,0.341,0.387   l0.205,4.516c0.979,0.361,1.902,0.807,2.812,1.353l3.658-2.657c0.156-0.113,0.37-0.103,0.516,0.025   c1.321,1.181,2.532,2.459,3.602,3.8c1.068,1.337,2.043,2.802,2.902,4.353c0.093,0.169,0.057,0.382-0.09,0.509l-3.404,2.981   c0.33,0.998,0.558,1.998,0.694,3.04l4.359,1.207c0.187,0.051,0.311,0.226,0.3,0.419c-0.099,1.758-0.341,3.501-0.723,5.181   c-0.385,1.683-0.922,3.359-1.597,4.985c-0.075,0.179-0.262,0.279-0.455,0.247l-4.45-0.805c-0.574,0.881-1.213,1.683-1.945,2.438   l1.776,4.159c0.076,0.179,0.017,0.385-0.14,0.497c-1.432,1.018-2.946,1.916-4.504,2.666c-0.674,0.324-1.418,0.636-2.226,0.946   c0.114,1.074,0.176,2.164,0.176,3.269c0,14.978-10.772,27.479-24.975,30.183h53.511c0.304,0,0.549-0.245,0.549-0.549V5.549   C94.726,5.246,94.48,5,94.177,5z"></path></g></svg></g><path fill="#565151" fill-rule="nonzero" d="M15.67 5.95Q15.67 7.46 14.86 8.69Q14.04 9.91 12.48 10.49L12.48 10.49L16.15 17.40L10.20 17.40L7.27 11.38L5.30 11.38L5.30 17.40L0 17.40L0 0.89L10.10 0.89Q11.88 0.89 13.14 1.57Q14.40 2.26 15.04 3.42Q15.67 4.58 15.67 5.95L15.67 5.95ZM10.27 6.17Q10.27 5.52 9.84 5.09Q9.41 4.66 8.78 4.66L8.78 4.66L5.30 4.66L5.30 7.70L8.78 7.70Q9.41 7.70 9.84 7.26Q10.27 6.82 10.27 6.17L10.27 6.17ZM24.60 4.44Q27.50 4.44 29.33 5.41Q31.15 6.38 31.15 8.57L31.15 8.57L31.15 13.51Q31.15 13.92 31.34 14.18Q31.54 14.45 31.92 14.45L31.92 14.45L32.78 14.45L32.78 17.21Q32.71 17.26 32.41 17.36Q32.11 17.47 31.56 17.58Q31.01 17.69 30.29 17.69L30.29 17.69Q28.90 17.69 28.00 17.27Q27.10 16.85 26.76 16.10L26.76 16.10Q25.85 16.82 24.72 17.26Q23.59 17.69 22.08 17.69L22.08 17.69Q17.62 17.69 17.62 14.14L17.62 14.14Q17.62 12.29 18.61 11.32Q19.61 10.34 21.48 9.98Q23.35 9.62 26.38 9.62L26.38 9.62L26.38 9.00Q26.38 8.26 25.86 7.87Q25.34 7.49 24.53 7.49L24.53 7.49Q23.78 7.49 23.24 7.75Q22.70 8.02 22.70 8.59L22.70 8.59L22.70 8.69L18 8.69Q17.98 8.57 17.98 8.35L17.98 8.35Q17.98 6.55 19.69 5.50Q21.41 4.44 24.60 4.44L24.60 4.44ZM26.38 11.88Q24.34 11.88 23.36 12.32Q22.39 12.77 22.39 13.51L22.39 13.51Q22.39 14.71 24.02 14.71L24.02 14.71Q24.96 14.71 25.67 14.21Q26.38 13.70 26.38 12.96L26.38 12.96L26.38 11.88ZM39.29 3.24L34.51 3.24L34.51 0L39.29 0L39.29 3.24ZM39.29 17.40L34.51 17.40L34.51 4.73L39.29 4.73L39.29 17.40ZM47.28 17.40L42.50 17.40L42.50 0L47.28 0L47.28 17.40ZM56.35 4.44Q58.90 4.44 60.66 5.44Q62.42 6.43 62.42 8.52L62.42 8.52L57.98 8.52Q57.98 7.82 57.36 7.54L57.36 7.54Q56.93 7.30 56.28 7.30L56.28 7.30Q54.55 7.30 54.55 8.11L54.55 8.11Q54.55 8.57 55.15 8.76Q55.75 8.95 57.12 9.17L57.12 9.17Q58.80 9.41 59.93 9.73Q61.06 10.06 61.90 10.88Q62.74 11.71 62.74 13.20L62.74 13.20Q62.74 15.62 60.92 16.66Q59.11 17.69 56.18 17.69L56.18 17.69Q54.50 17.69 53.02 17.22Q51.53 16.75 50.59 15.77Q49.66 14.78 49.66 13.27L49.66 13.27L54.10 13.27L54.10 13.37Q54.12 14.18 54.78 14.51Q55.44 14.83 56.18 14.83L56.18 14.83Q58.18 14.83 58.18 13.90L58.18 13.90Q58.18 13.42 57.55 13.20Q56.93 12.98 55.51 12.74L55.51 12.74Q53.81 12.46 52.72 12.12Q51.62 11.78 50.81 10.98Q49.99 10.18 49.99 8.74L49.99 8.74Q49.99 6.41 51.76 5.42Q53.52 4.44 56.35 4.44L56.35 4.44ZM86.54 3.07Q83.81 6.46 82.24 9.55Q80.66 12.65 80.66 15.98L80.66 15.98L80.66 17.40L75.34 17.40Q75.34 14.14 76.74 10.98Q78.14 7.82 80.54 5.02L80.54 5.02L72.62 5.02L72.62 0.89L86.54 0.89L86.54 3.07ZM104.26 0.60Q107.42 0.60 109.46 1.88Q111.50 3.17 111.55 5.69L111.55 5.69L111.55 5.98L106.58 5.98L106.58 5.88Q106.58 5.16 106.06 4.68Q105.53 4.20 104.45 4.20L104.45 4.20Q103.39 4.20 102.83 4.51Q102.26 4.82 102.26 5.28L102.26 5.28Q102.26 5.93 103.03 6.24Q103.80 6.55 105.50 6.89L105.50 6.89Q107.50 7.30 108.78 7.74Q110.06 8.18 111.02 9.19Q111.98 10.20 112.01 11.93L112.01 11.93Q112.01 14.86 110.03 16.27Q108.05 17.69 104.74 17.69L104.74 17.69Q100.87 17.69 98.72 16.39Q96.58 15.10 96.58 11.81L96.58 11.81L101.59 11.81Q101.59 13.06 102.24 13.48Q102.89 13.90 104.26 13.90L104.26 13.90Q105.26 13.90 105.92 13.68Q106.58 13.46 106.58 12.79L106.58 12.79Q106.58 12.19 105.85 11.89Q105.12 11.59 103.46 11.26L103.46 11.26Q101.45 10.82 100.13 10.36Q98.81 9.89 97.82 8.81Q96.84 7.73 96.84 5.88L96.84 5.88Q96.84 3.17 98.94 1.88Q101.04 0.60 104.26 0.60L104.26 0.60ZM120.58 4.44Q123.48 4.44 125.30 5.41Q127.13 6.38 127.13 8.57L127.13 8.57L127.13 13.51Q127.13 13.92 127.32 14.18Q127.51 14.45 127.90 14.45L127.90 14.45L128.76 14.45L128.76 17.21Q128.69 17.26 128.39 17.36Q128.09 17.47 127.54 17.58Q126.98 17.69 126.26 17.69L126.26 17.69Q124.87 17.69 123.97 17.27Q123.07 16.85 122.74 16.10L122.74 16.10Q121.82 16.82 120.70 17.26Q119.57 17.69 118.06 17.69L118.06 17.69Q113.59 17.69 113.59 14.14L113.59 14.14Q113.59 12.29 114.59 11.32Q115.58 10.34 117.46 9.98Q119.33 9.62 122.35 9.62L122.35 9.62L122.35 9.00Q122.35 8.26 121.84 7.87Q121.32 7.49 120.50 7.49L120.50 7.49Q119.76 7.49 119.22 7.75Q118.68 8.02 118.68 8.59L118.68 8.59L118.68 8.69L113.98 8.69Q113.95 8.57 113.95 8.35L113.95 8.35Q113.95 6.55 115.67 5.50Q117.38 4.44 120.58 4.44L120.58 4.44ZM122.35 11.88Q120.31 11.88 119.34 12.32Q118.37 12.77 118.37 13.51L118.37 13.51Q118.37 14.71 120 14.71L120 14.71Q120.94 14.71 121.64 14.21Q122.35 13.70 122.35 12.96L122.35 12.96L122.35 11.88ZM136.58 4.44Q139.49 4.44 141.31 5.41Q143.14 6.38 143.14 8.57L143.14 8.57L143.14 13.51Q143.14 13.92 143.33 14.18Q143.52 14.45 143.90 14.45L143.90 14.45L144.77 14.45L144.77 17.21Q144.70 17.26 144.40 17.36Q144.10 17.47 143.54 17.58Q142.99 17.69 142.27 17.69L142.27 17.69Q140.88 17.69 139.98 17.27Q139.08 16.85 138.74 16.10L138.74 16.10Q137.83 16.82 136.70 17.26Q135.58 17.69 134.06 17.69L134.06 17.69Q129.60 17.69 129.60 14.14L129.60 14.14Q129.60 12.29 130.60 11.32Q131.59 10.34 133.46 9.98Q135.34 9.62 138.36 9.62L138.36 9.62L138.36 9.00Q138.36 8.26 137.84 7.87Q137.33 7.49 136.51 7.49L136.51 7.49Q135.77 7.49 135.23 7.75Q134.69 8.02 134.69 8.59L134.69 8.59L134.69 8.69L129.98 8.69Q129.96 8.57 129.96 8.35L129.96 8.35Q129.96 6.55 131.68 5.50Q133.39 4.44 136.58 4.44L136.58 4.44ZM138.36 11.88Q136.32 11.88 135.35 12.32Q134.38 12.77 134.38 13.51L134.38 13.51Q134.38 14.71 136.01 14.71L136.01 14.71Q136.94 14.71 137.65 14.21Q138.36 13.70 138.36 12.96L138.36 12.96L138.36 11.88ZM153.60 0.60Q156.77 0.60 158.81 1.88Q160.85 3.17 160.90 5.69L160.90 5.69L160.90 5.98L155.93 5.98L155.93 5.88Q155.93 5.16 155.40 4.68Q154.87 4.20 153.79 4.20L153.79 4.20Q152.74 4.20 152.17 4.51Q151.61 4.82 151.61 5.28L151.61 5.28Q151.61 5.93 152.38 6.24Q153.14 6.55 154.85 6.89L154.85 6.89Q156.84 7.30 158.12 7.74Q159.41 8.18 160.37 9.19Q161.33 10.20 161.35 11.93L161.35 11.93Q161.35 14.86 159.37 16.27Q157.39 17.69 154.08 17.69L154.08 17.69Q150.22 17.69 148.07 16.39Q145.92 15.10 145.92 11.81L145.92 11.81L150.94 11.81Q150.94 13.06 151.58 13.48Q152.23 13.90 153.60 13.90L153.60 13.90Q154.61 13.90 155.27 13.68Q155.93 13.46 155.93 12.79L155.93 12.79Q155.93 12.19 155.20 11.89Q154.46 11.59 152.81 11.26L152.81 11.26Q150.79 10.82 149.47 10.36Q148.15 9.89 147.17 8.81Q146.18 7.73 146.18 5.88L146.18 5.88Q146.18 3.17 148.28 1.88Q150.38 0.60 153.60 0.60L153.60 0.60Z" transform="translate(36, 9.3)"></path></svg>