<svg xmlns="http://www.w3.org/2000/svg" xmlns:xlink="http://www.w3.org/1999/xlink" id="Capa_1" width="48" height="48" x="0" style="enable-background:new 0 0 64 64" y="0" version="1.1" viewBox="0 0 64 64" xml:space="preserve"><g><g><g id="circle_copy_4_7_"><g><path d="M32,0C14.327,0,0,14.327,0,32s14.327,32,32,32s32-14.327,32-32S49.673,0,32,0z M32,62C15.432,62,2,48.568,2,32.001 C2,15.432,15.432,2,32,2c16.568,0,30,13.432,30,30.001C62,48.568,48.568,62,32,62z"/></g></g><g id="check"><g><polygon points="45.191 24.222 43.777 22.808 28 38.586 20.222 30.808 18.808 32.223 27.778 41.191 28 40.971 28.222 41.191"/></g></g></g></g></svg>