<?xml version="1.0" standalone="no"?>
<svg xmlns="http://www.w3.org/2000/svg" viewBox="0 0 147.144 36" width="147.144" height="36"><g fill="#676eea" color="#676eea" transform="translate(0 3.9999999999999982) scale(0.2800001)"><svg width="100.0" height="100.0" x="0.0" y="0.0" viewBox="0 0 100 100"><g display="none"><rect x="-192" display="inline" width="185" height="99"></rect><rect y="-36" display="inline" width="100" height="30"></rect><text transform="matrix(1 0 0 1 66 -19.5)" display="inline" fill="currentColor" font-family="'Helvetica'" font-size="2.4"></text><text transform="matrix(1 0 0 1 7.166 -24.5)" display="inline"><tspan x="0" y="0" fill="currentColor" font-family="'Helvetica-Bold'" font-size="6.1578"></tspan><tspan x="1.12" y="4.8" fill="currentColor" font-family="'Helvetica-Bold'" font-size="4"></tspan></text><text transform="matrix(1 0 0 1 -178.5 10.5)" display="inline" fill="currentColor" font-family="'Helvetica-Bold'" font-size="6.1578"></text><line display="inline" fill="currentColor" stroke="currentColor" stroke-miterlimit="10" x1="8" y1="-14.5" x2="18" y2="-14.5"></line><line display="inline" fill="currentColor" stroke="currentColor" stroke-miterlimit="10" x1="-179" y1="16.5" x2="-162" y2="16.5"></line><g display="inline"><g><g><rect x="-170.802" y="31.318" fill="currentColor" width="8.721" height="8.642"></rect><path fill="currentColor" d="M-164.455,42.312h4.747v-4.703h-4.747V42.312z M-159.266,42.749h-5.63V37.17h5.63V42.749      L-159.266,42.749z M-166.221,44.062h8.279v-8.203h-8.279V44.062L-166.221,44.062z M-157.5,44.5h-9.163v-9.079h9.163V44.5      L-157.5,44.5z"></path><polygon fill="currentColor" points="-166.149,44.133 -166.292,43.991 -158.013,35.787 -157.871,35.929     "></polygon></g></g></g><rect x="-179" y="58" display="inline" fill="none" width="35" height="32.5"></rect><text transform="matrix(1 0 0 1 -179 60.1299)" display="inline"><tspan x="0" y="0" fill="currentColor" font-family="'Helvetica-Bold'" font-size="3"></tspan><tspan x="0" y="5" fill="currentColor" font-family="'Helvetica'" font-size="2.4"></tspan><tspan x="0" y="10" fill="currentColor" font-family="'Helvetica'" font-size="2.4"></tspan><tspan x="0" y="14.5" fill="currentColor" font-family="'Helvetica'" font-size="2.4"></tspan><tspan x="0" y="17.5" fill="currentColor" font-family="'Helvetica'" font-size="2.4"></tspan><tspan x="0" y="22" fill="currentColor" font-family="'Helvetica-Bold'" font-size="2.4"></tspan><tspan x="0" y="25" fill="currentColor" font-family="'Helvetica-Bold'" font-size="2.4"></tspan></text><rect x="-136.5" y="58" display="inline" fill="none" width="35" height="32.5"></rect><text transform="matrix(1 0 0 1 -136.5 60.1299)" display="inline"><tspan x="0" y="0" fill="currentColor" font-family="'Helvetica-Bold'" font-size="3"></tspan><tspan x="0" y="5" fill="currentColor" font-family="'Helvetica'" font-size="2.4"></tspan><tspan x="0" y="8.5" fill="currentColor" font-family="'Helvetica'" font-size="2.4"></tspan><tspan x="0" y="13.5" fill="currentColor" font-family="'Helvetica'" font-size="2.4"></tspan><tspan x="0" y="16.5" fill="currentColor" font-family="'Helvetica'" font-size="2.4"></tspan></text><rect x="-94" y="58" display="inline" fill="none" width="35" height="32.5"></rect><text transform="matrix(1 0 0 1 -94 60.1299)" display="inline"><tspan x="0" y="0" fill="currentColor" font-family="'Helvetica-Bold'" font-size="3"></tspan><tspan x="0" y="5" fill="currentColor" font-family="'Helvetica'" font-size="2.4"></tspan><tspan x="0" y="8" fill="currentColor" font-family="'Helvetica'" font-size="2.4"></tspan></text><rect x="-50" y="58" display="inline" fill="none" width="35" height="32.5"></rect><text transform="matrix(1 0 0 1 -50 60.1299)" display="inline"><tspan x="0" y="0" fill="currentColor" font-family="'Helvetica-Bold'" font-size="3"></tspan><tspan x="0" y="5" fill="currentColor" font-family="'Helvetica'" font-size="2.4"></tspan><tspan x="0" y="8" fill="currentColor" font-family="'Helvetica'" font-size="2.4"></tspan></text><text transform="matrix(1.0074 0 0 1 -125.542 30.5933)" display="inline" fill="currentColor" font-family="'Helvetica'" font-size="2.5731"></text><text transform="matrix(1.0074 0 0 1 -41 39)" display="inline" fill="currentColor" font-family="'Helvetica-Bold'" font-size="5.1462"></text><rect x="-126.514" y="34.815" display="inline" fill="currentColor" width="10.261" height="10.185"></rect><rect x="-126.477" y="31.766" display="inline" fill="currentColor" width="0.522" height="2.337"></rect><rect x="-116.813" y="31.766" display="inline" fill="currentColor" width="0.523" height="2.337"></rect><rect x="-127" y="32.337" display="inline" fill="currentColor" width="11.233" height="0.572"></rect><g display="inline"><rect x="-83.805" y="33.844" fill="currentColor" width="10.305" height="10.156"></rect><rect x="-76.809" y="28.707" fill="currentColor" width="3.308" height="3.261"></rect></g><rect x="-178.5" y="22.5" display="inline" fill="currentColor" stroke="currentColor" stroke-miterlimit="10" width="30" height="30"></rect><rect x="-136.5" y="22.5" display="inline" fill="currentColor" stroke="currentColor" stroke-miterlimit="10" width="30" height="30"></rect><rect x="-93.5" y="22.5" display="inline" fill="currentColor" stroke="currentColor" stroke-miterlimit="10" width="30" height="30"></rect><rect x="-49.5" y="22.5" display="inline" fill="currentColor" stroke="currentColor" stroke-miterlimit="10" width="30" height="30"></rect></g><g display="none"><g display="inline"><path d="M17.978,52.895c-0.671,0-1.267-0.479-1.393-1.163c-0.14-0.77,0.37-1.506,1.14-1.649l63.518-11.6    c0.771-0.141,1.509,0.369,1.647,1.139c0.141,0.769-0.37,1.507-1.139,1.648L18.233,52.87    C18.148,52.886,18.062,52.895,17.978,52.895z"></path></g><g display="inline"><path d="M19.191,59.526c-0.671,0-1.267-0.478-1.392-1.162c-0.141-0.771,0.37-1.508,1.139-1.648l54.602-9.974    c0.775-0.14,1.51,0.37,1.649,1.14c0.139,0.769-0.37,1.508-1.14,1.647l-54.602,9.976C19.361,59.52,19.275,59.526,19.191,59.526z"></path></g><g display="inline"><path d="M20.4,66.16c-0.671,0-1.267-0.479-1.393-1.162c-0.14-0.771,0.369-1.508,1.139-1.649l44.577-8.144    c0.771-0.139,1.507,0.368,1.646,1.139c0.143,0.771-0.369,1.509-1.139,1.649l-44.575,8.143C20.57,66.152,20.484,66.16,20.4,66.16z"></path></g><g display="inline"><path d="M22.823,79.428c-0.671,0-1.267-0.479-1.392-1.163c-0.14-0.77,0.37-1.509,1.139-1.648l44.576-8.144    c0.771-0.138,1.509,0.368,1.648,1.139c0.143,0.771-0.369,1.508-1.138,1.648L23.08,79.403    C22.994,79.419,22.908,79.428,22.823,79.428z"></path></g><g display="inline"><path d="M21.615,72.742c-0.648,0-1.223-0.462-1.343-1.121c-0.136-0.743,0.356-1.453,1.098-1.59l59.063-10.787    c0.737-0.129,1.453,0.355,1.588,1.098c0.136,0.743-0.355,1.454-1.098,1.59L21.861,72.72    C21.778,72.734,21.695,72.742,21.615,72.742z"></path></g><path display="inline" d="M100.299,69.863l-9.087-49.754c-0.98-5.376-5.025-9.431-9.411-9.431c-0.434,0-0.87,0.039-1.297,0.118   l-29.086,5.313c-0.026,0.094-0.063,0.187-0.114,0.274L44.719,27.59c-0.218,0.372-0.611,0.583-1.019,0.583   c-0.158,0-0.318-0.031-0.472-0.098c-0.547-0.238-0.831-0.848-0.66-1.42l2.818-9.443L7.285,24.17   c-4.805,0.878-7.82,6.483-6.723,12.497l8.983,49.18c0.998,5.467,4.956,9.435,9.41,9.435c0.433,0,0.868-0.04,1.295-0.117   l64.958-11.867l0.29-0.054L100.299,69.863z M19.966,93.114c-0.304,0.057-0.614,0.084-0.921,0.084c-3.393,0-6.556-3.322-7.36-7.726   l-8.088-44.28l86.548-15.809l7.985,43.714l-0.221,0.199l-12.031,2.197c-1.282,0.234-2.508,1.039-3.278,2.155   c-0.337,0.489-0.711,1.224-0.578,1.953l1.092,5.977L19.966,93.114z M85.349,80.655l-0.978-5.354   c0.126-0.345,0.838-1.285,1.931-1.482l8.279-1.513L85.349,80.655z"></path><path display="inline" d="M55.62,9.537c-0.452-2.47-2.548-4.262-4.984-4.262c-0.296,0-0.591,0.027-0.883,0.08   c-2.722,0.499-4.521,3.184-4.009,5.986c0.196,1.08,0.724,2.052,1.526,2.825l-3.461,11.6c-0.042,0.144,0.028,0.296,0.165,0.356   c0.039,0.017,0.078,0.024,0.118,0.024c0.102,0,0.201-0.053,0.255-0.146l6.121-10.424c0.392,0.026,0.784,0.012,1.145-0.054   C54.331,15.025,56.131,12.34,55.62,9.537z"></path></g><g display="none"><path display="inline" d="M50.295,0.257c-27.614,0-50,22.386-50,50c0,27.613,22.386,49.999,50,49.999s50-22.386,50-49.999   C100.295,22.643,77.909,0.257,50.295,0.257z M50.232,22.834C51.352,21.618,52.717,21,54.287,21c1.273,0,2.393,0.458,3.234,1.325   c0.846,0.862,1.275,1.965,1.275,3.275c0,1.642-0.574,3.102-1.705,4.339c-1.162,1.276-2.521,1.925-4.035,1.925   c-1.25,0-2.357-0.469-3.201-1.356c-0.836-0.869-1.263-2.005-1.263-3.371C48.592,25.464,49.144,24.016,50.232,22.834z    M58.561,69.941c-4.145,3.898-7.104,6.328-9.042,7.432c-2.068,1.184-3.772,1.762-5.207,1.762c-1.426,0-2.589-0.475-3.459-1.41   c-0.843-0.904-1.27-2.125-1.27-3.625c0-3.834,2.172-12.738,6.643-27.221c0.076-0.245,0.135-0.478,0.175-0.695   c-0.167,0.072-0.36,0.174-0.584,0.313c-0.366,0.231-1.481,1.106-4.744,4.294c-0.498,0.487-1.277,0.532-1.828,0.105l-1.93-1.493   c-0.308-0.237-0.502-0.593-0.536-0.981c-0.034-0.387,0.096-0.771,0.357-1.059c3.007-3.311,5.814-5.715,8.344-7.145   C48.128,38.726,50.367,38,52.322,38c1.264,0,2.285,0.314,3.037,0.936c0.818,0.682,1.25,1.629,1.25,2.74   c0,0.729-0.346,2.628-2.9,11.193c-3.648,12.238-4.52,16.68-4.579,18.217c0.69-0.408,2.323-1.568,5.809-4.844   c0.543-0.514,1.395-0.504,1.928,0.016l1.711,1.668c0.273,0.266,0.426,0.631,0.422,1.012S58.838,69.68,58.561,69.941z"></path></g><g display="none"><path display="inline" d="M95.888,53.078C92.229,47.12,86.582,42.846,79.9,40.936c0.017-0.394,0.042-0.786,0.042-1.182   c0-19.147-17.897-34.669-39.971-34.669C17.896,5.085,0,20.606,0,39.754c0,9.828,4.725,18.693,12.299,25.004   C9.18,70.285,4.52,74.742,0,79.596c9.391,0.674,20.149-1.693,28.121-6.723c3.743,1.006,7.725,1.549,11.851,1.549   c1.804,0,3.574-0.123,5.315-0.324c0.676,2.791,1.787,5.49,3.334,8.01c3.876,6.314,9.98,10.738,17.185,12.463   c2.126,0.506,4.303,0.764,6.468,0.764c12.875,0,23.959-8.756,26.955-21.293C100.952,66.836,99.765,59.391,95.888,53.078z    M28.461,22h2.974l-0.127,22h-2.719L28.461,22z M32,52h-3v-3h3V52z M34.813,25.222c0,0,2.602-2.421,6.808-2.421   c4.843,0,8.741,3.101,8.741,7.52c0,7.053-7.362,7.647-7.362,13.255V44h-2v-0.508c0-6.755,6.731-7.69,6.731-13.043   c0-2.719-2.646-4.886-5.918-4.886c-2.889,0-5.317,1.827-5.317,1.827L34.813,25.222z M44,52h-4v-3h4V52z M97.642,73.66   c-2.82,11.801-13.252,20.043-25.368,20.043c-2.038,0-4.087-0.242-6.088-0.721c-6.782-1.621-12.525-5.787-16.175-11.729   c-3.648-5.941-4.765-12.949-3.144-19.73c2.818-11.799,13.248-20.04,25.361-20.04c2.04,0,4.09,0.242,6.094,0.722   c6.782,1.622,12.526,5.786,16.177,11.726C98.146,59.873,99.264,66.881,97.642,73.66z"></path><g display="inline"><path d="M71.014,62.264c-0.894,3.725-3.122,6.383-4.99,5.939c-1.859-0.447-2.646-3.826-1.757-7.551    c0.889-3.725,3.122-6.383,4.985-5.938C71.113,55.158,71.903,58.541,71.014,62.264z"></path></g><g display="inline"><ellipse transform="matrix(0.9726 0.2326 -0.2326 0.9726 17.2083 -16.92)" cx="80.334" cy="64.492" rx="3.467" ry="6.934"></ellipse></g><g display="inline"><path d="M68.538,81.383c-6.282-1.5-11.306-6.17-15.394-10.172c2.138,5.359,7.517,11.643,15.031,13.441    c7.985,1.908,16.062-1.582,20.26-5.922C82.618,80.918,75.431,83.031,68.538,81.383z"></path></g></g><g display="none"><rect x="23" y="42" display="inline" width="51" height="2"></rect><polygon display="inline" points="25,78 23,80 74,80 74,78  "></polygon><rect x="43" y="54" display="inline" width="31" height="2"></rect><polygon display="inline" points="37,66 35,68 74,68 74,66  "></polygon><path display="inline" d="M28.201,0.872L28.111,1.8c0,0-0.978,7.577-1.311,10.2H16v46.257l-7.298,7.143l2.66,2.717l14.994-14.672   l1.782,1.837L13.154,69.948l3.989,4.077l14.967-14.646l1.783,1.838L18.936,75.855l2.661,2.717L36.59,63.901   c0.074,0.027,0.151,0.046,0.23,0.046c0.052,0,0.104-0.006,0.157-0.019c0.227-0.056,0.407-0.228,0.474-0.451l5.089-17.037   c0.067-0.226,0.009-0.471-0.153-0.641c-0.162-0.171-0.403-0.243-0.632-0.188l-17.529,4.208c-0.23,0.055-0.413,0.229-0.479,0.456   c-0.037,0.129-0.024,0.259,0.015,0.382L18,56.299V14h50v10.816C68,25.332,68.688,26,69.202,26H81v72H18V82.092l2.444-2.393   L7.55,66.526l-5.852,5.729c-0.983,0.96-1,2.535-0.038,3.518l9.412,9.618c0.961,0.981,2.537,0.998,3.521,0.037L16,84.051V100h67   v-4.861l3.454,0.353l8.595-88.097L28.201,0.872z M38.968,47.636c0.673,0.422,1.123,0.971,1.411,1.44L36.51,62.024L25.657,50.832   L38.968,47.636z M70,24v-9.165L79.942,24H70z M84.779,93.455L83,93.196V24.759c0,0,0.049-0.656-0.207-0.822L69.804,12.078   C69.592,11.882,69.335,12,69.057,12H28.869c0.166-1.1,0.467-3.567,1.006-9.092l63.138,6.16L84.779,93.455z"></path></g><g><path d="M66.333,0H19.556C8.887,0,0,8.73,0,19.397v46.777C0,76.843,8.887,86,19.556,86h30.089l20.224,13.611   c0.506,0.346,1.09,0.389,1.669,0.389c0.008,0,0.016,0,0.024,0c1.642,0,2.973-1.458,2.973-3.102c0-0.656-0.212-1.326-0.573-1.817   l-5.254-9.693C78.336,84.296,86,76.098,86,66.175V19.397C86,8.73,76.998,0,66.333,0z M42,67.194v-0.117   c-19-10.204-30.354-22.358-28.426-35.6c2.49-17.154,23.596-16.725,28.802-3.014c5.231-13.681,26.449-14.069,28.947,3.069   C73.256,44.804,63,56.971,42,67.194z"></path></g><g display="none"><g display="inline"><g><path d="M83.951,11.054C79.763,3.443,70.67-0.977,62.104-0.081C57.597,0.391,54.01,3.39,51.779,7.167     c-2.327,3.942-0.469,9.017,0.841,12.938c0.298-0.193,0.597-0.386,0.896-0.579c-7.208-9.576-28.61-21.402-37.375-7.525     C10.54,20.87,15.09,31.833,21.239,38.9c3.454,3.97,0.662,8.631-0.238,13.201c-0.286,1.454-0.57,5.077,1.771,5.204     c2.756,0.15,4.625-1.229,5.793-3.621c0.87-1.781,0.778-4.064,0.743-5.975c-0.009-0.495-0.542-2.004,0.215-1.429     c1.761,1.337,3.617,2.546,5.474,3.743c3.346,2.157,1.092,9.424-0.18,12.135c-0.863,1.839-2.096,3.664-2.493,5.686     c-0.716,3.647,1.045,5.851,4.553,6.866c5.559,1.608,4.974-8.542,4.825-11.328c-0.131-2.433-0.343-4.862-0.532-7.29     c-0.317-4.098,3.344-0.61,5.433,0.469c2.534,1.309,0.71,8.753,0.453,10.926c-0.403,3.396-1.233,6.69-1.969,10.022     c-1.264,5.724-2.532,12.093-1.105,17.895c0.956,3.885,4.925,5.889,8.404,3.564c4.339-2.898,1.786-12.672,1.063-16.565     c-0.729-3.919-1.343-7.765-1.799-11.732c-0.43-3.744-0.765-7.497-1.056-11.254c-0.065-0.841,7.805,2.867,8.667,3.277     c0.21,0.101,0.505-0.007,0.627-0.195c6.494-10.053,15.789-17.257,23.14-26.521C89.215,28.178,88.103,19.567,83.951,11.054     c-0.303-0.622-1.275-0.163-0.971,0.462c2.623,5.38,4.503,11.039,2.886,17c-1.353,4.986-5.406,9.039-8.908,12.605     c-3.474,3.538-7.037,6.968-10.345,10.667c-2.071,2.316-3.961,4.779-5.764,7.309c-2.642,3.708-7.476-0.38-10.732-1.97     c-0.405-0.198-0.742,0.236-0.716,0.598c0.564,8.003,1.251,16.029,2.804,23.907c0.716,3.637,3.79,21.71-5.221,16.648     c-4.646-2.609-2.242-13.185-1.515-17.271c1.44-8.102,3.155-15.812,3.428-24.105c0.008-0.266-0.12-0.439-0.349-0.555     c-2.653-1.343-5.278-2.729-7.874-4.18c-0.425-0.237-0.875,0.048-0.838,0.534c0.332,4.388,0.8,8.788,0.892,13.19     c0.031,1.478-0.08,2.941-0.31,4.399c-0.311,1.975-1.219,3.973-3.998,3.168c-4.769-1.381-3.281-5.091-2.219-7.646     c1.75-4.213,3.708-7.685,3.349-12.448c-0.05-0.664,0.192-2.899-0.521-3.343c-2.82-1.754-5.549-3.606-8.193-5.615     c-0.399-0.303-0.885,0.095-0.838,0.534c0.23,2.161,0.324,4.265,0.078,6.422c-0.538,4.713-6.774,6.262-6.003,0.838     c0.473-3.327,1.732-6.5,2.231-9.844c0.47-3.149-3.419-5.415-5.174-7.822c-4.105-5.629-5.225-12.506-3.312-19.153     c5.125-17.805,30.104-4.161,36.877,4.838c0.397,0.528,1.074-0.045,0.896-0.579c-1.903-5.701-2.885-10.419,1.674-15.309     c2.66-2.854,6.733-3.599,10.442-3.468c6.877,0.242,13.979,4.667,17.273,10.65C83.313,12.12,84.287,11.664,83.951,11.054z"></path></g></g></g><g display="none"><path display="inline" d="M89.756,45.524C91.754,55.551,78.5,67.03,59.605,71.28c-18.895,4.252-33.407-1.373-38.274-10.361   C11.934,43.563,31.672,33.131,50.565,28.88C69.463,24.63,85.85,25.937,89.756,45.524z M76.277,62.909c0,0,8.572-1.161,10.482-9.989   c-0.125-0.664-0.236-1.055-0.236-1.055c-14.727-4.426-61.158,5.522-61.158,5.522l-0.016,0.014   C35.072,61.134,55.684,67.36,76.277,62.909z"></path><g display="inline"><path d="M19.572,55.325c0,0,28.379,14.082,56.705,7.961c0,0,19.146-2.563,6.607-29.443c-1.646-8.605,0.373-7.388,4.646-4.562    c0,0,23.762,29.87,4.5,47.437c0,0-15.563,17.481-50.446,2.112C35.213,76.02,21.633,60.793,9.458,61.038    C9.458,61.038-2.219,54.986,19.572,55.325z"></path><path fill="currentColor" d="M68.244,85.5c-8.215,0-17.232-2.138-26.799-6.353c-2.082-0.918-4.889-3.113-8.139-5.654    c-6.899-5.396-15.486-12.11-23.556-12.11l-0.374,0.005l-0.078-0.041c-0.381-0.197-3.709-1.981-3.271-3.777    c0.427-1.753,4.301-2.605,11.841-2.605c0.546,0,1.114,0.004,1.709,0.014l0.149,0.036c0.191,0.095,19.344,9.467,41.537,9.467    c5.203,0,10.23-0.516,14.941-1.533c0.086-0.013,6.025-0.875,8.951-6.234c2.867-5.251,1.998-12.896-2.588-22.724l-0.025-0.082    c-0.734-3.842-0.764-5.825-0.096-6.633c0.242-0.293,0.572-0.441,0.98-0.441c0.961,0,2.264,0.815,4.295,2.159l0.08,0.073    c0.238,0.301,23.742,30.327,4.463,47.908C92.215,77.034,84.488,85.5,68.244,85.5z M9.75,60.688c8.31,0,17,6.797,23.984,12.258    c3.213,2.513,5.988,4.683,7.991,5.566c9.479,4.176,18.4,6.293,26.52,6.293c15.938,0,23.453-8.236,23.527-8.318    c18.496-16.87-3.48-45.663-4.479-46.947c-1.506-0.995-3.051-2.014-3.865-2.014c-0.199,0-0.338,0.059-0.445,0.19    c-0.736,0.891-0.018,4.7,0.234,6.019c4.67,10.025,5.525,17.87,2.543,23.319c-3.1,5.667-9.18,6.541-9.436,6.575    c-4.732,1.023-9.807,1.545-15.061,1.545c-21.672,0-40.461-8.87-41.774-9.504c-0.563-0.009-1.103-0.013-1.622-0.013    c-9.275,0-10.978,1.3-11.167,2.075c-0.255,1.044,1.945,2.477,2.841,2.957L9.75,60.688z"></path></g><g display="inline"><path d="M0.601,58.097c0,0,22.063-22.313,29.348-34.313c0,0,13.845-18.758,25.82-5.06c0,0,23.594-23.281,32.432-7.295    c0,0,10.068,23.944-13.455,21.747c0,0-31.147-1.979-42.649,8.473c0,0-15.677,19.627-27.523,20.793    C4.574,62.441-0.877,63.173,0.601,58.097z"></path><path fill="currentColor" d="M3.895,62.825c-0.881,0-2.485-0.169-3.338-1.306c-0.628-0.838-0.726-2.021-0.29-3.52l0.024-0.085    l0.062-0.063c0.22-0.223,22.119-22.422,29.298-34.249c0.325-0.443,7.652-10.232,16.408-10.232c3.545,0,6.815,1.632,9.727,4.852    c1.951-1.869,13.717-12.747,23.387-12.747c4.068,0,7.209,1.947,9.33,5.785c0.207,0.486,4.631,11.198,0.314,17.693    c-2.436,3.669-7.189,5.215-14.104,4.567c-0.014-0.001-2.373-0.148-5.963-0.148c-10.096,0-28.252,1.108-36.422,8.532    C31.724,42.671,16.463,61.62,4.608,62.787C4.608,62.787,4.32,62.825,3.895,62.825z M0.91,58.276    c-0.345,1.237-0.277,2.188,0.202,2.826c0.671,0.896,2.032,1.028,2.783,1.028c0.371,0,0.623-0.032,0.633-0.033    c11.575-1.14,27.141-20.471,27.297-20.666c8.381-7.621,26.731-8.753,36.926-8.753c3.613,0,5.994,0.149,6.016,0.15    c6.699,0.625,11.188-0.819,13.473-4.258c4.109-6.184-0.314-16.9-0.359-17.008c-1.975-3.568-4.91-5.394-8.707-5.394    c-10.068,0-23.031,12.673-23.16,12.801L55.75,19.23l-0.242-0.278c-2.834-3.243-6.014-4.887-9.448-4.887    c-8.403,0-15.758,9.825-15.832,9.924C23.214,35.546,2.221,56.945,0.91,58.276z"></path></g><g display="inline"><path fill="currentColor" d="M54.316,34.112c-8.16,1.046-16.717,3.237-21.656,7.725c0,0-0.342,0.428-0.95,1.146l1.327,6.632    c0,0,0.647,5.096,8.012,3.438l8.027-2.054c0,0,7.708-1.236,6.931-5.803L54.316,34.112z"></path></g><g display="inline"><path fill="currentColor" d="M77.893,33.3c-0.982,0.01-2.014-0.019-3.146-0.124c0,0-9.428-0.595-19.824,0.606l1.549,10.246    c0,0,0.109,5.074,7.371,4.019c0.166-0.022,0.338-0.03,0.512-0.051C73.355,46.97,76.1,45.853,76.1,45.853s4.955-0.767,3.607-5.057    L77.893,33.3z"></path></g><g display="inline"><path fill="currentColor" d="M39.136,24.274c-1.042-0.645-2.157-1.791-1.414-3.319c2.601-3.438,9.659-8.021,11.888-3.056    c1.115,2.673-4.457,3.438-6.755,5.278C41.203,24.107,39.833,24.506,39.136,24.274z"></path></g><g display="inline"><path fill="currentColor" d="M71.395,14.884c3.865-1.522,10.115,1.229,12.043-2.991c0.52-1.376,0.525-2.094-0.283-3.016    c-2.061-1.451-5.088-1.153-7.242-0.166c-1.527,0.699-3.008,2.134-4.244,4.182C70.83,14.077,70.648,14.912,71.395,14.884z"></path></g><g display="inline"><path fill="currentColor" d="M64.18,18.25c-0.318-0.851,0.676-2.106,2.197-2.785c1.527-0.681,2.994-0.522,3.311,0.329    c0.318,0.853-0.635,2.072-2.158,2.751C66.008,19.223,64.498,19.101,64.18,18.25z"></path></g></g><g display="none"><g display="inline"><path fill="none" stroke="currentColor" stroke-width="0.9791" d="M94.676,44.378c0,13.726-11.166,24.893-24.891,24.893    c-2.295,0-4.574-0.316-6.78-0.939c-3.882,8.797-12.551,14.459-22.19,14.459c-11.094,0-20.702-7.45-23.471-18.155    c-9.64-1.116-16.872-9.218-16.872-18.969c0-10.531,8.567-19.099,19.099-19.099c1.673,0,3.33,0.217,4.935,0.645    c-0.142-0.929-0.214-1.865-0.214-2.791c0-10.176,8.279-18.455,18.455-18.455c8.877,0,16.587,6.479,18.16,15.156    c2.837-1.085,5.822-1.636,8.879-1.636C83.51,19.486,94.676,30.653,94.676,44.378z M94.246,44.378    c0-13.511-10.951-24.462-24.461-24.462c-3.262,0-6.372,0.643-9.216,1.801c-1.307-8.672-8.788-15.321-17.823-15.321    c-9.955,0-18.025,8.071-18.025,18.026c0,1.16,0.114,2.293,0.324,3.392c-1.731-0.53-3.569-0.817-5.474-0.817    c-10.311,0-18.669,8.358-18.669,18.669c0,9.674,7.359,17.629,16.785,18.573C20.242,74.642,29.625,82.36,40.814,82.36    c9.866,0,18.332-5.999,21.946-14.548c2.227,0.667,4.582,1.028,7.024,1.028C83.295,68.841,94.246,57.89,94.246,44.378z"></path></g><path display="inline" d="M61.205,21.34l0.505-0.206c0.984-0.401,1.988-0.728,3.008-0.993c-1.61-3.261-4.17-5.961-7.327-7.74   c1.924,2.364,3.257,5.237,3.733,8.4L61.205,21.34z"></path><path display="inline" d="M88.657,29.333c3.814,4.256,6.14,9.873,6.14,16.023c0,13.252-10.781,24.034-24.032,24.034   c-2.339,0-4.66-0.34-6.9-1.01l-0.37-0.11l-0.148,0.354c-3.671,8.679-12.13,14.287-21.552,14.287c-5.56,0-10.723-1.951-14.785-5.264   C31.301,83.893,38.479,88,46.631,88c9.867,0,18.332-5.997,21.948-14.547c2.225,0.665,4.581,1.029,7.022,1.029   c13.512,0,24.463-10.954,24.463-24.464C100.064,41.309,95.511,33.668,88.657,29.333z"></path><path display="inline" d="M18.032,63.843l-0.302-0.031c-3.434-0.344-6.553-1.62-9.131-3.556c2.476,3.935,6.386,6.865,10.991,8.094   c-0.615-1.337-1.124-2.739-1.485-4.213L18.032,63.843z"></path></g><g display="none"><g display="inline"><path d="M58.915,95.263c0,2.889-4.419,5.229-9.869,5.229c-5.452,0-9.87-2.34-9.87-5.229v0.228l-0.001-46.731    c0-1.667,1.41-3.016,3.149-3.016H55.8c1.739,0,3.148,1.349,3.148,3.016l-0.036,46.503H58.915z"></path><path d="M49.046,100.599c-5.359,0-9.745-2.271-9.968-5.108h-0.009l-0.001-46.731c0-1.722,1.46-3.123,3.256-3.123H55.8    c1.795,0,3.256,1.401,3.256,3.123L59.02,95.158l0.003,0.104C59.022,98.205,54.547,100.599,49.046,100.599z M39.284,95.263    c0,2.823,4.379,5.121,9.762,5.121c5.335,0,9.685-2.258,9.76-5.048l-0.002-0.073l0.036-46.503c0-1.604-1.364-2.908-3.041-2.908    H42.325c-1.677,0-3.042,1.305-3.042,2.908L39.284,95.263z"></path></g><g display="inline"><path d="M59.07,3.925c0,0,2.359-0.326,1.86,6.045c0,0-0.251,1.688-1.472,1.471C59.459,11.44,59.653,3.844,59.07,3.925z"></path></g><g display="inline"><path fill="currentColor" d="M52.105,96.934c0,0.361-0.299,0.654-0.667,0.654l0,0c-0.369,0-0.667-0.293-0.667-0.654v-7.405    c0-0.361,0.298-0.654,0.667-0.654l0,0c0.368,0,0.667,0.293,0.667,0.654V96.934z"></path></g><g display="inline"><path fill="currentColor" d="M50.031,96.934c0,0.361-0.298,0.654-0.667,0.654l0,0c-0.368,0-0.666-0.293-0.666-0.654v-7.405    c0-0.361,0.298-0.654,0.666-0.654l0,0c0.369,0,0.667,0.293,0.667,0.654V96.934z"></path></g><g display="inline"><path fill="currentColor" d="M54.252,96.86c0,0.361-0.299,0.654-0.666,0.654l0,0c-0.368,0-0.666-0.293-0.666-0.654v-7.405    c0-0.361,0.298-0.653,0.666-0.653l0,0c0.367,0,0.666,0.292,0.666,0.653V96.86z"></path></g><g display="inline"><path fill="currentColor" d="M46.095,98.413c0,0.024-0.026,0.045-0.057,0.045h-0.189c-0.031,0-0.057-0.021-0.057-0.045V48.021    c0-0.025,0.026-0.045,0.057-0.045h0.189c0.031,0,0.057,0.02,0.057,0.045V98.413z"></path></g><g display="inline"><path fill="currentColor" d="M55.381,98.413c0,0.024-0.024,0.045-0.057,0.045h-0.188c-0.031,0-0.058-0.021-0.058-0.045V48.021    c0-0.025,0.025-0.045,0.058-0.045h0.188c0.031,0,0.057,0.02,0.057,0.045V98.413z"></path></g><g display="inline"><path fill="currentColor" d="M49.177,52.046h1.81c0.032,0,0.058,0.027,0.058,0.063v1.707c0,0.035-0.025,0.063-0.058,0.063l-1.897-0.013    c-0.875-0.495-0.73-2.285-0.73-2.285c0-2.174,0.678-2.377,0.678-2.377l1.95,0.005c0.032,0,0.058,0.029,0.058,0.063v1.708    c0,0.035-0.025,0.063-0.058,0.063h-1.81c0,0-0.2,0.203-0.2,0.536C48.977,51.58,49.014,52.027,49.177,52.046z"></path></g><g display="inline"><path fill="currentColor" d="M49.786,57.719c-0.698,0-1.235,0-1.235,0c-0.036,0-0.064,0.028-0.064,0.062v1.805    c0,0.033,0.028,0.062,0.064,0.062h1.805l-0.041-0.003c0.453-0.079,0.712-0.79,0.712-0.79c0.289-0.729-0.461-2.525-0.461-2.525    c0.437,0,0.445,0,0.445,0c0.036,0,0.065-0.027,0.065-0.063l-0.001-1.802c0-0.036-0.028-0.063-0.064-0.063H48.53    c-0.035,0-0.064,0.027-0.064,0.063v1.802c0,0.036,0.029,0.063,0.064,0.063c0,0,0.393,0,1.108,0c0,0,0.726,0.341,0.323,1.242    c0,0-0.081,0.144-0.178,0.144"></path></g><g display="inline"><path fill="currentColor" d="M48.53,62.138c-0.035,0-0.064-0.029-0.064-0.063v-1.803c0-0.035,0.029-0.064,0.064-0.064h2.482    c0.036,0,0.065,0.029,0.065,0.064v1.803c0,0.034-0.029,0.063-0.065,0.063H48.53z"></path></g><g display="inline"><path fill="currentColor" d="M51.82,62.1c-0.014,0-0.024-0.028-0.024-0.063v-1.804c0-0.034,0.011-0.062,0.024-0.062h0.935    c0.014,0,0.024,0.027,0.024,0.062v1.804c0,0.034-0.011,0.063-0.024,0.063H51.82z"></path></g><g display="inline"><path fill="currentColor" d="M53.819,83.538l-1.792-0.285l-0.049,0.475l-4.673-1.187v1.686l0.799,0.309v1.686l-0.799,0.166v1.828    c0,0,4.601-0.713,6.44-1.758L53.819,83.538z"></path><path d="M47.196,88.343v-2.046l0.799-0.166V84.61l-0.799-0.309v-1.902l0.137,0.035l4.549,1.155l0.048-0.464l2.002,0.318    l-0.002,0.097l-0.075,2.98l-0.054,0.031c-1.837,1.043-6.29,1.741-6.479,1.771L47.196,88.343z M47.416,86.477v1.609    c0.745-0.123,4.56-0.783,6.222-1.694l0.069-2.76l-1.582-0.252l-0.05,0.485l-4.66-1.183v1.469l0.799,0.309v1.851L47.416,86.477z"></path></g><g display="inline"><polygon points="52.075,85.437 49.8,84.961 49.8,85.959   "></polygon></g><g display="inline"><path fill="currentColor" d="M53.868,81.638l0.145,0.072l-0.581,1.543l-1.864-0.617c0,0,1.186-1.306,0.145-2.186    c0,0-1.186-1.115-2.349,0.167c0,0-0.799,0.925,0.412,1.946l-1.623,0.83c0,0-1.743-1.804-0.46-3.679c0,0,1.55-2.563,4.602-1.235    C52.294,78.479,54.183,79.382,53.868,81.638z"></path><path d="M48.13,83.528l-0.057-0.059c-0.018-0.019-1.79-1.891-0.472-3.817c0.038-0.063,1.029-1.665,3-1.665    c0.557,0,1.141,0.132,1.736,0.392c0.022,0.011,1.917,0.943,1.649,3.195l0.163,0.082l-0.653,1.734l-2.125-0.703l0.114-0.126    c0.006-0.006,0.585-0.654,0.541-1.308c-0.019-0.276-0.148-0.519-0.387-0.72c-0.009-0.008-0.46-0.424-1.054-0.424    c-0.409,0-0.793,0.195-1.142,0.581c0,0.001-0.263,0.313-0.227,0.757c0.029,0.357,0.241,0.704,0.628,1.031l0.126,0.106    L48.13,83.528z M50.602,78.208c-1.848,0-2.806,1.548-2.815,1.563c-1.094,1.6,0.115,3.163,0.392,3.485l1.404-0.718    c-0.357-0.337-0.553-0.698-0.583-1.077c-0.042-0.535,0.268-0.901,0.282-0.917c0.394-0.435,0.833-0.654,1.307-0.654    c0.683,0,1.18,0.46,1.2,0.479c0.281,0.237,0.438,0.531,0.46,0.87c0.037,0.567-0.312,1.104-0.493,1.342l1.612,0.533l0.509-1.352    l-0.127-0.063l0.011-0.079c0.301-2.15-1.494-3.034-1.513-3.043C51.682,78.333,51.127,78.208,50.602,78.208z"></path></g><g display="inline"><path fill="currentColor" d="M53.843,76.652l0.242,0.047l-0.339,1.686l-1.792-0.427c0,0,0.751-1.567,0.17-1.97    c0,0-0.532-0.286-0.896,1.114c0,0-0.605,2.257-2.761,1.473c0,0-2.421-0.949-0.824-4.582l0.315-0.664l1.55,0.806    c0,0-0.824,1.663-0.678,2.09c0,0,0,0.38,0.412,0.428c0,0,0.483,0.165,0.726-0.854c0,0,0.169-1.78,1.429-1.877    C51.397,73.921,54.425,73.399,53.843,76.652z"></path><path d="M49.326,78.851c-0.28,0-0.582-0.058-0.896-0.172c-0.036-0.015-0.83-0.335-1.226-1.294    c-0.376-0.912-0.262-2.068,0.339-3.436l0.365-0.771l1.747,0.908l-0.048,0.097c-0.311,0.627-0.768,1.727-0.673,2.006l0.006,0.035    c0,0.028,0.013,0.283,0.315,0.318c0.021,0.005,0.037,0.009,0.063,0.009c0.084,0,0.371-0.056,0.543-0.779    c0.005-0.062,0.191-1.858,1.527-1.961c-0.002,0,0.181-0.031,0.449-0.031c0.535,0,1.272,0.119,1.747,0.687    c0.4,0.478,0.529,1.184,0.384,2.098l0.246,0.048l-0.384,1.906l-2.035-0.485l0.059-0.123c0.197-0.411,0.618-1.54,0.21-1.829    c0,0.001-0.017-0.007-0.058-0.007c-0.094,0-0.418,0.076-0.672,1.056C51.33,77.148,50.856,78.851,49.326,78.851z M48.009,73.479    l-0.266,0.561c-0.574,1.306-0.688,2.401-0.338,3.256c0.358,0.873,1.095,1.174,1.103,1.177c0.287,0.104,0.563,0.158,0.818,0.158    c1.363,0,1.792-1.541,1.796-1.557c0.262-1.008,0.626-1.22,0.885-1.22c0.096,0,0.157,0.03,0.169,0.037    c0.568,0.393,0.112,1.582-0.066,1.99l1.552,0.369l0.294-1.465l-0.239-0.047l0.019-0.106c0.161-0.899,0.054-1.581-0.317-2.025    C52.996,74.105,52.326,74,51.838,74c-0.248,0-0.42,0.029-0.422,0.029c-1.164,0.09-1.336,1.762-1.338,1.779    c-0.199,0.841-0.561,0.964-0.759,0.964c-0.063,0-0.104-0.014-0.112-0.016c-0.367-0.041-0.479-0.345-0.486-0.515    c-0.119-0.427,0.438-1.639,0.642-2.06L48.009,73.479z"></path></g><g display="inline"><ellipse fill="currentColor" cx="50.574" cy="71.477" rx="3.486" ry="3.419"></ellipse><path d="M50.574,75.006c-1.983,0-3.596-1.584-3.596-3.53c0-1.945,1.613-3.528,3.596-3.528c1.983,0,3.597,1.583,3.597,3.528    C54.171,73.422,52.558,75.006,50.574,75.006z M50.574,68.168c-1.862,0-3.376,1.483-3.376,3.308c0,1.825,1.515,3.31,3.376,3.31    c1.861,0,3.376-1.484,3.376-3.31C53.95,69.651,52.436,68.168,50.574,68.168z"></path></g><g display="inline"><ellipse cx="50.574" cy="71.476" rx="1.404" ry="1.376"></ellipse></g><g display="inline"><path fill="currentColor" d="M53.989,64.521l-1.792-0.428l-0.073,0.403h-4.939v1.923h1.549c0,0-0.388,3.182,2.64,3.135    C51.374,69.554,54.352,69.767,53.989,64.521z"></path><path d="M51.422,69.665L51.422,69.665c-0.036,0-0.056-0.002-0.056-0.002l-0.058,0.001c-0.872,0-1.549-0.266-2.013-0.79    c-0.713-0.805-0.706-1.966-0.682-2.345h-1.54v-2.144h4.958l0.077-0.427l1.984,0.474l0.005,0.08    c0.142,2.04-0.197,3.513-1.005,4.379C52.424,69.609,51.645,69.665,51.422,69.665z M51.372,69.443l0.05,0.002l0,0    c0.2,0,0.901-0.051,1.511-0.704c0.755-0.809,1.074-2.198,0.952-4.133l-1.6-0.382l-0.069,0.38h-4.921v1.702h1.563l-0.015,0.124    c-0.002,0.014-0.161,1.418,0.618,2.297c0.42,0.475,1.042,0.715,1.847,0.715L51.372,69.443z"></path></g><g display="inline"><path d="M52.124,66.489h-1.623c0,0-0.047,1.021,0.873,1.021C51.374,67.511,52.318,67.582,52.124,66.489z"></path></g><g display="inline"><path fill="currentColor" d="M58.948,46.069V35.906c0-1.705-1.409-3.086-3.148-3.086H42.325c-1.739,0-3.149,1.381-3.149,3.086v10.163    H58.948z"></path><path d="M58.948,46.564H39.176c-0.273,0-0.495-0.222-0.495-0.495V35.906c0-1.975,1.635-3.582,3.644-3.582H55.8    c2.009,0,3.644,1.606,3.644,3.582v10.163C59.443,46.342,59.222,46.564,58.948,46.564z M39.671,45.574h18.782v-9.668    c0-1.429-1.19-2.591-2.653-2.591H42.325c-1.463,0-2.654,1.163-2.654,2.591V45.574z"></path></g><g display="inline"><path fill="currentColor" d="M39.187,34.54c2.275-0.727,5.865-1.14,10.029-1.14c3.96,0,7.451,0.46,9.744,1.126l-0.014-0.041    l0.003-28.311C58.948,2.764,56.129,0,52.65,0h-7.177c-3.479,0-6.298,2.764-6.298,6.174v28.385L39.187,34.54z"></path><path d="M39.175,35.043c-0.039,0-0.079-0.004-0.117-0.015c-0.219-0.056-0.377-0.244-0.377-0.47V6.174    c0-3.677,3.047-6.669,6.793-6.669h7.177c3.746,0,6.793,2.992,6.793,6.669L59.44,34.346c0.021,0.056,0.033,0.116,0.033,0.18    c0,0.292-0.257,0.533-0.552,0.492c-0.034-0.001-0.067-0.006-0.101-0.016c-2.421-0.703-5.922-1.106-9.606-1.106    c-4.023,0-7.599,0.4-9.826,1.1C39.323,35.026,39.25,35.043,39.175,35.043z M45.474,0.495c-3.2,0-5.803,2.547-5.803,5.679v27.708    c2.342-0.632,5.693-0.977,9.544-0.977c3.459,0,6.776,0.351,9.235,0.971l0.003-27.701c0-3.131-2.604-5.679-5.803-5.679H45.474z"></path></g><g display="inline"><path fill="currentColor" d="M53.945,92.154c0.011,0.053,0.019,0.122,0.019,0.209c0,0.108-0.025,0.187-0.071,0.236    c-0.041,0.047-0.103,0.075-0.179,0.075c-0.077,0-0.138-0.022-0.183-0.066c-0.062-0.057-0.094-0.151-0.094-0.257    c0-0.033,0.002-0.063,0.008-0.088h-0.342v-0.109H53.945z M53.535,92.264c-0.006,0.023-0.009,0.055-0.009,0.09    c0,0.133,0.066,0.212,0.182,0.212c0.113,0,0.168-0.079,0.168-0.199c0-0.048-0.005-0.084-0.009-0.103H53.535z"></path><path fill="currentColor" d="M53.957,92.928h-0.854v-0.11h0.854V92.928z"></path><path fill="currentColor" d="M53.104,93.117h0.854v0.12l-0.432,0.27c-0.101,0.062-0.188,0.111-0.277,0.15l0.001,0.003    c0.114-0.01,0.218-0.012,0.35-0.012h0.358v0.103h-0.854v-0.11l0.434-0.268c0.095-0.059,0.192-0.115,0.284-0.156l-0.001-0.004    c-0.107,0.006-0.21,0.007-0.352,0.007h-0.365V93.117z"></path><path fill="currentColor" d="M53.957,93.939v0.109h-0.411v0.004c0.032,0.022,0.063,0.045,0.091,0.066l0.32,0.258v0.135l-0.362-0.306    l-0.491,0.329v-0.129l0.419-0.276l-0.094-0.081h-0.325v-0.109H53.957z"></path></g><g display="inline"><path fill="currentColor" d="M51.834,92.011c0.012,0.056,0.02,0.136,0.02,0.209c0,0.116-0.023,0.193-0.071,0.245    c-0.037,0.042-0.095,0.066-0.162,0.066c-0.111,0-0.187-0.071-0.217-0.158h-0.004c-0.022,0.063-0.083,0.103-0.172,0.123    c-0.119,0.028-0.201,0.048-0.235,0.064v-0.112c0.025-0.015,0.098-0.033,0.205-0.056c0.117-0.024,0.162-0.071,0.166-0.17V92.12    h-0.371v-0.109H51.834z M51.446,92.12v0.111c0,0.116,0.064,0.19,0.162,0.19c0.11,0,0.158-0.079,0.158-0.194    c0-0.053-0.005-0.089-0.01-0.107H51.446z"></path><path fill="currentColor" d="M50.979,93.016c0-0.224,0.176-0.379,0.434-0.379c0.271,0,0.448,0.165,0.448,0.391    c0,0.231-0.179,0.38-0.432,0.38c-0.292,0-0.45-0.176-0.45-0.39V93.016z M51.069,93.021c0,0.173,0.161,0.271,0.354,0.271    c0.17,0,0.347-0.087,0.347-0.269s-0.171-0.271-0.355-0.271C51.235,92.751,51.069,92.849,51.069,93.021L51.069,93.021z"></path><path fill="currentColor" d="M51.127,93.533c-0.031,0.049-0.056,0.119-0.056,0.194c0,0.111,0.059,0.177,0.146,0.177    c0.078,0,0.125-0.046,0.168-0.159c0.051-0.138,0.124-0.223,0.243-0.223c0.133,0,0.231,0.108,0.231,0.272    c0,0.085-0.02,0.149-0.041,0.186l-0.091-0.03c0.017-0.026,0.041-0.083,0.041-0.159c0-0.115-0.069-0.158-0.128-0.158    c-0.08,0-0.119,0.051-0.165,0.167c-0.057,0.143-0.125,0.214-0.25,0.214c-0.132,0-0.248-0.095-0.248-0.294    c0-0.081,0.026-0.17,0.057-0.215L51.127,93.533z"></path><path fill="currentColor" d="M51.394,94.599v-0.326h-0.308v0.365h-0.093v-0.476h0.854v0.457h-0.093v-0.347h-0.27v0.326H51.394z"></path></g><g display="inline"><path fill="currentColor" d="M49.833,91.935c0.012,0.056,0.019,0.136,0.019,0.209c0,0.116-0.023,0.193-0.071,0.245    c-0.037,0.042-0.095,0.066-0.162,0.066c-0.111,0-0.186-0.071-0.217-0.158h-0.003c-0.023,0.063-0.084,0.103-0.172,0.123    c-0.119,0.028-0.202,0.048-0.234,0.064v-0.112c0.024-0.015,0.098-0.033,0.204-0.056c0.118-0.024,0.162-0.071,0.166-0.17v-0.103    h-0.37v-0.109H49.833z M49.446,92.044v0.111c0,0.116,0.064,0.19,0.162,0.19c0.11,0,0.158-0.079,0.158-0.194    c0-0.053-0.005-0.089-0.01-0.107H49.446z"></path><path fill="currentColor" d="M48.979,92.939c0-0.224,0.175-0.379,0.434-0.379c0.271,0,0.448,0.165,0.448,0.391    c0,0.231-0.179,0.38-0.432,0.38c-0.292,0-0.45-0.176-0.45-0.39V92.939z M49.069,92.944c0,0.173,0.161,0.271,0.354,0.271    c0.169,0,0.347-0.087,0.347-0.269s-0.171-0.271-0.356-0.271C49.234,92.675,49.069,92.772,49.069,92.944L49.069,92.944z"></path><path fill="currentColor" d="M49.127,93.457c-0.032,0.049-0.056,0.119-0.056,0.194c0,0.111,0.058,0.177,0.146,0.177    c0.079,0,0.125-0.046,0.168-0.159c0.051-0.138,0.124-0.223,0.243-0.223c0.133,0,0.232,0.108,0.232,0.272    c0,0.085-0.021,0.149-0.042,0.186l-0.09-0.03c0.017-0.026,0.041-0.083,0.041-0.159c0-0.115-0.07-0.158-0.128-0.158    c-0.08,0-0.119,0.051-0.165,0.167c-0.057,0.143-0.125,0.214-0.251,0.214c-0.131,0-0.247-0.095-0.247-0.294    c0-0.081,0.025-0.17,0.056-0.215L49.127,93.457z"></path><path fill="currentColor" d="M49.261,94.224l-0.269-0.088v-0.112l0.854,0.286v0.132l-0.854,0.288v-0.116l0.269-0.091V94.224z     M49.347,94.5l0.246-0.084c0.056-0.018,0.106-0.029,0.156-0.042V94.37c-0.049-0.012-0.103-0.025-0.154-0.041l-0.247-0.083V94.5z"></path></g><g display="inline" opacity="0.61"><path d="M55.291,30.945c-0.183,0-0.33-0.148-0.33-0.33V6.944c0-3.036-2.188-3.722-2.28-3.749c-0.174-0.052-0.274-0.235-0.224-0.41    c0.052-0.175,0.229-0.275,0.408-0.224c0.027,0.008,2.756,0.836,2.756,4.383v23.671C55.621,30.797,55.474,30.945,55.291,30.945z"></path></g><g display="inline" opacity="0.61"><path d="M55.291,44.888c-0.183,0-0.33-0.148-0.33-0.33v-8.424c0-0.182,0.147-0.33,0.33-0.33s0.33,0.148,0.33,0.33v8.424    C55.621,44.74,55.474,44.888,55.291,44.888z"></path></g></g><g display="none"><path display="inline" d="M87.911,28H37.046c-0.224-2-1.579-3-3.229-3h-3.859L46.405,0.864c0.163-0.239,0.1-0.502-0.139-0.664   c-0.24-0.162-0.565-0.069-0.726,0.17L29.392,24.205l-5.08-13.669c-0.102-0.271-0.402-0.403-0.672-0.305   c-0.271,0.101-0.408,0.28-0.308,0.55L28.659,25h-3.547c-1.65,0-3.005,1-3.229,3H7.945C3.333,28,0,31.821,0,36.432v54.741   C0,95.784,3.333,100,7.945,100h79.966C92.522,100,97,95.784,97,91.173V36.432C97,31.821,92.522,28,87.911,28z M84.056,88.153   c1.871,0,3.392,1.521,3.392,3.393s-1.521,3.393-3.392,3.393s-3.393-1.521-3.393-3.393S82.185,88.153,84.056,88.153z M84.056,85.857   c-1.871,0-3.393-1.521-3.393-3.393s1.521-3.393,3.393-3.393s3.392,1.521,3.392,3.393S85.927,85.857,84.056,85.857z M71,39.347   v48.911C71,91.942,68.262,95,65.459,95H10.098C7.295,95,5,91.942,5,88.258V39.347C5,35.663,7.295,33,10.098,33h55.361   C68.262,33,71,35.663,71,39.347z"></path></g><g display="none"><g display="inline"><g><path d="M14.787,59.457h4.496c-0.269-0.836-0.502-1.686-0.704-2.549L14.787,59.457z"></path><path d="M85.604,59.457l-3.988-2.752c-0.209,0.934-0.461,1.851-0.75,2.752H85.604z"></path><path d="M2.362,57.765c-2.531,2.094-2.701,4.671-2.018,6.386c0.739,1.854,2.799,3.995,8.425,3.658h5.589h0.469h8.742h0.147     h33.362l-5.221-7.786H19.369h-5.509h-0.929l0.771-0.518l4.647-3.124l21.421-14.39l-4.336-6.467L17.995,47.239     c0,0-0.022,0.016-0.055,0.038l-0.119,0.079c-0.011,0.008-0.022,0.016-0.035,0.023l-0.49,0.33     c-0.106,0.072-0.226,0.152-0.352,0.236l-6.454,4.335l-0.41,0.275l0,0l-7.41,4.978C2.564,57.605,2.46,57.683,2.362,57.765z"></path><path d="M17.787,47.379c0.012-0.008,0.024-0.016,0.035-0.023L17.787,47.379z"></path><path d="M82.55,46.516l7.017,4.839c0.026-0.606,0.044-1.194,0.044-1.772c0-10.543-4.116-20.468-11.593-27.943     c-3.875-3.875-8.412-6.839-13.348-8.805c0.068,0.563,0.108,1.134,0.108,1.714c0,1.892-0.389,3.717-1.094,5.395     c3.062,1.411,5.918,3.296,8.452,5.628C78.105,31.061,81.798,38.494,82.55,46.516z"></path><path d="M53.314,10.186c-1.073-0.087-2.152-0.141-3.241-0.141c-0.562,0-1.122,0.018-1.68,0.041     c-0.292,0.012-0.583,0.031-0.875,0.05c-0.253,0.017-0.506,0.036-0.759,0.056c-0.332,0.028-0.663,0.057-0.994,0.093     c-0.109,0.011-0.218,0.028-0.327,0.04c-0.816,0.096-1.629,0.214-2.437,0.36c-0.021,0.004-0.041,0.008-0.061,0.011     c-1.825,0.334-3.626,0.795-5.39,1.385l-0.465,0.154l0-0.002c-5.561,1.935-10.663,5.112-14.955,9.406     c-7.476,7.476-11.593,17.4-11.593,27.943c0,0.632,0.021,1.279,0.054,1.948l6.977-4.687c0.707-8.473,4.642-16.231,11.098-21.856     l0.242-0.21l0.179,0.266L64.81,78.326l0.179,0.266l-0.286,0.145c-4.568,2.302-9.49,3.471-14.628,3.471     c-10.572,0-20.52-5.169-26.646-13.832h-8.121C22.252,81.182,35.527,89.12,50.074,89.12c14.549,0,27.824-7.938,34.768-20.745     h-8.121c-1.511,2.138-3.282,4.1-5.273,5.83l-0.242,0.21l-0.179-0.267L35.297,20.858l-0.178-0.265l0.286-0.144     c4.578-2.315,9.513-3.491,14.669-3.491c1.661,0,3.304,0.132,4.923,0.379c0.547-0.814,0.863-1.781,0.863-2.789     C55.86,12.681,54.832,11.05,53.314,10.186z"></path><path d="M42.94,10.696c0.02-0.003,0.041-0.007,0.061-0.011C42.981,10.689,42.96,10.693,42.94,10.696z"></path></g><path d="M97.422,57.467c-0.012-0.007-0.022-0.014-0.032-0.021l0.003-0.006l-7.727-5.329l-7.544-5.204l-0.109-0.075v-0.001    c-1.623-1.12-21.473-14.814-27.226-18.784l-0.318-0.141c0.098-0.222,0.237-0.342,0.328-0.422c0.292-0.255,0.739-0.463,0.822-0.476    l-0.03,0.006l0.306-0.079l0.288-0.126c4.879-2.128,8.03-6.941,8.03-12.263c0-7.374-5.999-13.373-13.374-13.373    c-6.163,0-11.538,4.271-12.981,10.215c3.423-1.093,6.975-1.726,10.569-1.874C49.188,9.152,50,8.963,50.839,8.963    c3.081,0,5.586,2.505,5.586,5.585c0,2.132-1.244,4.109-3.171,5.037l-0.018,0.009l-0.02,0.005c-2.9,0.918-6.377,3.657-6.639,8.359    l0.096,0.001v0.012l-4.086,2.745l4.335,6.467l3.583-2.407l0.161-0.107l0.159,0.11l31.022,21.399l4.824,3.328l0.748,0.516H62.236    l5.22,7.786h24.078c6.479,0,8.066-3.143,8.448-4.494C100.605,61.11,99.6,58.819,97.422,57.467z"></path></g></g><g display="none"><g display="inline"><path d="M27.388,97.648c-0.192,0.08-0.391,0.173-0.595,0.279c-0.203,0.107-0.403,0.198-0.596,0.278l-0.405,0.167    c-0.361,0.329-0.67,0.592-0.929,0.789c-0.258,0.195-0.54,0.356-0.849,0.484c-0.579,0.238-1.174,0.247-1.785,0.022    c-0.61-0.223-1.168-0.454-1.675-0.698c-0.599-0.25-1.134-0.673-1.605-1.27c-0.47-0.597-0.854-1.147-1.155-1.656    c-0.101-0.138-0.25-0.359-0.442-0.664c-0.193-0.303-0.389-0.642-0.586-1.01c-0.197-0.373-0.382-0.714-0.556-1.024    c-0.172-0.312-0.285-0.527-0.332-0.643l-0.024-0.057l-0.239-0.581l-0.07-0.173c-0.556-1.352-0.945-2.736-1.168-4.158    c-0.223-1.418-0.337-2.849-0.345-4.291c-0.017-0.264-0.038-0.942-0.061-2.04c-0.021-1.097-0.039-2.262-0.052-3.499    c-0.01-1.236-0.024-2.393-0.039-3.469c-0.014-1.078-0.011-1.756,0.009-2.036c-0.019-0.264-0.042-0.433-0.076-0.51l-3.526-12.358    l-0.048-0.116l-0.143-0.348l-0.072-0.174c-0.38-0.926-1.073-1.455-2.072-1.583c-1.002-0.13-2.048-0.151-3.141-0.063    c-1.091,0.088-2.095,0.175-3.008,0.256c-0.914,0.084-1.481-0.146-1.704-0.686c-0.126-0.309-0.16-0.556-0.101-0.739    c0.062-0.181,0.194-0.405,0.4-0.672c0.117-0.047,0.292-0.141,0.526-0.282c0.237-0.143,0.478-0.299,0.723-0.467    c0.248-0.17,0.488-0.324,0.722-0.468c0.236-0.14,0.391-0.228,0.468-0.259c0.594-0.424,0.948-1.068,1.068-1.929    c0.12-0.861,0.185-1.609,0.192-2.247c0.007-0.093,0.009-0.308,0.006-0.644c-0.003-0.337,0-0.712,0.012-1.123    c0.012-0.411,0.012-0.793,0-1.151c-0.011-0.356-0.027-0.62-0.053-0.789c0.003-0.543,0-0.904-0.006-1.083    c-0.005-0.177-0.086-0.46-0.246-0.846L3.62,43.657c-0.068-0.06-0.206-0.173-0.41-0.337c-0.203-0.165-0.423-0.345-0.662-0.54    c-0.238-0.196-0.463-0.385-0.674-0.569c-0.211-0.185-0.351-0.306-0.422-0.368c-0.204-0.277-0.313-0.435-0.33-0.474L0.86,40.732    c-0.301-0.733-0.366-1.463-0.19-2.19c0.174-0.726,0.668-1.256,1.478-1.59c0.541-0.222,1.085-0.243,1.633-0.063    c0.548,0.181,1.111,0.152,1.691-0.085c0.386-0.159,0.826-0.542,1.319-1.152c0.494-0.609,0.876-1.082,1.144-1.418    c0.023-0.054,0.08-0.11,0.167-0.171c0.089-0.058,0.153-0.096,0.191-0.111c0.123-0.141,0.471-0.34,1.041-0.597    c0.571-0.257,0.934-0.419,1.088-0.482c0.073-0.48,0.076-0.911,0.01-1.291c-0.065-0.379,0.21-0.696,0.828-0.95    c0.426-0.175,0.767-0.168,1.024,0.019c0.258,0.188,0.555,0.416,0.891,0.684l23.68-9.742c0.193-0.08,0.414,0.044,0.66,0.372    c0.248,0.328,0.387,0.53,0.418,0.607l43.77-18.007C81.632,4.502,81.57,4.382,81.519,4.2c-0.052-0.182-0.048-0.308,0.013-0.378    c0.047-0.109,0.165-0.203,0.357-0.283c0.194-0.079,0.303-0.147,0.324-0.201c0.247-0.281,0.378-0.562,0.399-0.84    c0.02-0.28,0.04-0.56,0.062-0.839c0.021-0.279,0.095-0.535,0.225-0.769c0.129-0.234,0.406-0.439,0.831-0.613    c0.811-0.333,1.675-0.292,2.587,0.121c0.915,0.414,1.663,0.884,2.241,1.414l3.647-1.501l3.143,7.643l-3.356,1.381    c0.032,0.078,0.083,0.227,0.149,0.446c0.069,0.22,0.158,0.466,0.269,0.737c0.111,0.27,0.205,0.524,0.281,0.764    c0.076,0.239,0.13,0.398,0.161,0.475c0.016,0.039,0.029,0.124,0.036,0.255c0.011,0.133,0.004,0.225-0.021,0.279l1.998,5.678    l-6.716,2.763c0.031,0.077,0.08,0.249,0.146,0.515c0.064,0.269,0.113,0.439,0.143,0.516c-0.021,0.054-0.042,0.143-0.061,0.263    c-0.018,0.12-0.046,0.188-0.084,0.204L63.164,32.566c-0.396,0.569-0.649,0.944-0.756,1.123c-1.176,1.749-1.877,3.471-2.106,5.166    c-0.227,1.696,0.04,3.47,0.803,5.323l0.404,0.984c0.175,0.425,0.352,0.826,0.529,1.204c0.179,0.378,0.417,0.821,0.717,1.331    l-0.272,0.652c-1.313,2.076-2.857,3.917-4.633,5.526c-1.774,1.611-3.818,2.893-6.135,3.846c-1.736,0.715-3.477,1.226-5.222,1.538    c-1.745,0.312-3.491,0.647-5.24,1.005c-0.247,0.058-0.39,0.094-0.429,0.108l-0.289,0.12c-0.502,0.205-0.744,0.441-0.726,0.704    l1.277,16.602l1.803,7.179l0.262,0.637c0.086,0.1,0.228,0.278,0.424,0.536c0.196,0.258,0.411,0.53,0.641,0.819    c0.232,0.288,0.432,0.557,0.602,0.803c0.168,0.246,0.276,0.427,0.324,0.542l0.048,0.116c0.032,0.079,0.069,0.141,0.112,0.191    c0.043,0.048,0.081,0.114,0.112,0.19l0.072,0.175c0.253,0.616,0.293,1.096,0.119,1.44c-0.174,0.342-0.582,0.668-1.223,0.976    c-0.193,0.08-0.527,0.228-1.001,0.446c-0.474,0.217-0.924,0.412-1.35,0.588l-0.635,0.262c-2.239,0.92-4.506,1.719-6.802,2.391    c-2.296,0.675-4.562,1.472-6.802,2.393L27.388,97.648z M38.315,54.602c0.537,0.976,1.233,1.738,2.091,2.287    c0.608,0.382,1.417,0.568,2.429,0.557c1.012-0.009,2.059-0.123,3.143-0.343c1.083-0.22,2.118-0.5,3.107-0.84    c0.988-0.338,1.772-0.626,2.352-0.864c1.736-0.715,3.203-1.623,4.396-2.724c1.195-1.101,2.281-2.438,3.257-4.013    c0.063-0.07,0.119-0.206,0.17-0.409c0.055-0.202,0.091-0.33,0.114-0.385c0.135-0.551,0.11-1.128-0.07-1.732    c-0.18-0.603-0.373-1.154-0.581-1.656c-1-2.432-2.401-3.841-4.209-4.226c-1.804-0.385-3.866-0.102-6.18,0.852l-0.87,0.357    c-0.152,0.063-0.304,0.137-0.451,0.219c-0.146,0.083-0.258,0.14-0.336,0.172c-0.16,0.157-0.325,0.303-0.495,0.44    c-0.169,0.137-0.206,0.322-0.111,0.554l0.095,0.231l5.079,6.914c0.272,0.115,0.558,0.257,0.854,0.428    c0.296,0.172,0.499,0.393,0.61,0.663c0.047,0.114,0.014,0.198-0.104,0.244l-0.173,0.073c-0.076,0.03-0.159,0.076-0.248,0.134    c-0.088,0.062-0.171,0.105-0.249,0.137l-0.231,0.096c-0.771,0.318-1.706,0.465-2.798,0.439c-1.093-0.023-1.972-0.35-2.637-0.979    l-2.301-2.304c-0.227-0.222-0.403-0.318-0.526-0.291c-0.124,0.028-0.243,0.066-0.359,0.114c-0.116,0.048-0.244,0.011-0.385-0.113    c-0.14-0.123-0.34-0.445-0.602-0.971l-0.334-0.81l-0.333-0.811c-0.015-0.038-0.068-0.061-0.163-0.068l-0.78-0.084    c-0.28-0.021-0.643-0.165-1.092-0.431c-0.448-0.267-0.768-0.361-0.962-0.281c-0.116,0.047-0.184,0.098-0.207,0.153    c-0.693,0.511-1.256,1.227-1.689,2.149c-0.432,0.922-0.511,1.824-0.241,2.705l0.524,1.274l0.143,0.349    C37.329,52.695,37.778,53.627,38.315,54.602z M2.513,40.391c0.222,0.043,0.448,0.019,0.68-0.077    c0.271-0.111,0.478-0.265,0.624-0.459c0.146-0.195,0.162-0.428,0.051-0.698c-0.255-0.617-0.728-0.784-1.424-0.498    c-0.269,0.111-0.433,0.292-0.488,0.54c-0.056,0.249-0.037,0.489,0.059,0.721C2.125,40.189,2.293,40.346,2.513,40.391z"></path></g></g><g display="none"><path display="inline" fill-rule="evenodd" clip-rule="evenodd" d="M85.287,78.188c1.111-17.51-10.829-32.34-23.479-35.912   c-7.219-2.04-14.105,2.246-18.875-0.878c1.649-4.813-1.896-6.282-2.197-10.538c-0.373-5.317,5.081-9.059,6.146-15.367   c0.878-5.197,1.075-9.807-0.875-15.365c-4.943,0.327-6.242,4.296-9.223,6.586c0.107-2.3-0.981-3.408-2.192-4.389   c-7.57,3.17-8.519,14.613-9.661,22.827c-0.961,0.588-2.773-0.203-4.826,0.441C16.286,26.781,7.998,37.88,6.493,41.835   c-1.619,4.256,2.08,6.579,3.075,9.66c3.114,1.421,7.78,1.291,10.975,2.634c-1.242,4.269-1.692,6.676-2.197,11.412   c0.938,0.677,0.665,2.557,1.759,3.073c-1.338,6.238,6.272,10.318,3.512,16.687c-2.998,1.396-5.815,2.968-6.586,6.582   c4.353,2.965,12.477,2.16,19.316,2.634c0.751,0.564,0.007,2.627,1.315,2.638c0.183-0.555,0.567-0.898,1.318-0.878   c-0.247,0.894-1.321,0.857-0.44,1.752c11.719,1.238,27.581,1.913,39.36,1.034c1.005,0.469,2.09,0.725,3.228,0.725   c5.091,0,9.22-5.11,9.22-11.416C90.348,83.922,88.288,80.07,85.287,78.188z"></path></g><g display="none"><path display="inline" d="M6.908,59.901c0,0,0.237,2.717-0.003,4.434c0,0-0.226,2.344,1.869,2.843c0,0,3.178-0.586,6.717-0.812   c0,0,2.628-0.353,3.302-2.218c0,0,3.287-2.841,4.449-5.255c0,0,2.854-3.415,2.583-1.493c0,0-1.489,5.462-2.181,5.983   c0,0-5.109,2.224-5.254,4.368c0,0-2.252,0.614-2.292,1.999c0,0-0.432,0.867,0.607,1.17c0,0,1.216,0.171-0.97,1.411   c0,0-2.938,3.299-0.747,4.227c0,0,2.306,4.5,15.585,2.494c0,0,2.769-1.002,3.654-2.889l2.936-3.301c0,0,1.283,0.797,2.746-3.02   c0,0,1.05-1.029,2.171-2.419c1.152-2.357,1.976-5.208,3.624-6.906c2.756-2.838,8.927-0.217,13.911,0.095   c2.292,0.144,4.481-0.317,6.848-0.276c1.338,2.606,2.182,5.591,2.795,8.747c-2.011,0.279-2.482,0.586-3.758,1.411   c0,0-3.047,2.706-2.96,3.452c0,0,0.032,4.183,11.408,3.611c0,0-4.779,4.283,0.404,5.938c0,0,18.626,6.173,20.205-3.971   c0,0,3.293,0.657,0.983-4.927c-0.678-2.094-2.048-3.986-2.756-5.617c-1.405-3.258-3.635-8.109-3.016-11.563   c0.36-2.024,1.64-3.062,2.24-4.945c0.347-1.088,0.939-2.461,1.073-3.252c0.071-0.401-0.78-0.907-0.695-1.645   c0.082-0.713,0.828-1.152,0.862-1.735c0.22-3.743,1.846-8.472-0.116-12.396c-1.647-3.289-4.883-5.663-8.515-7.692   c-3.679-2.054-7.473-4.96-11.582-5.646c-8.593-1.434-15.51,1.566-22.572,2.09c-3.49,0.261-7-1.518-10.58-1.792   c-4.598-0.354-8.216,2.357-11.995,3.885c-5.25,2.127-10.895,2.288-14.331,5.108c-2.085-1.852-7.816-5.427-10.796-2.444   c-0.228,2.85,1.218,4.65,1.146,7.277c-0.15,5.495-3.393,10.225-1.52,15.257c0.625,1.686,2.973,2.99,3.954,4.888   C7.299,56.228,6.99,57.693,6.908,59.901"></path></g><g display="none"><path display="inline" d="M97.985,43.626C91.658,54.217,75,65.764,59,70.948V87.87c0,1.038-0.964,1.88-2.004,1.88   C55.96,89.75,55,88.908,55,87.87V72.043c-1,0.461-3.145,0.836-4.877,1.116C48.638,73.393,47,73.51,46,73.537V87.87   c0,1.038-0.962,1.88-2.002,1.88c-1.036,0-1.998-0.842-1.998-1.88V73.404C26,71.962,8.368,59.508,1.909,42.191   c-7.358-20.4,14.746-34.567,48.196-29.748C83.599,17.394,105.383,31.237,97.985,43.626z M61.155,47.236   c-1.975,0-3.576,2.4-3.576,5.36c0,2.961,1.602,5.361,3.576,5.361s3.576-2.4,3.576-5.361C64.731,49.637,63.13,47.236,61.155,47.236z    M48.078,49.869c-1.767,0-3.196,2.147-3.196,4.795c0,2.651,1.429,4.798,3.196,4.798c1.768,0,3.197-2.146,3.197-4.798   C51.275,52.016,49.846,49.869,48.078,49.869z"></path></g><g display="none"><path display="inline" d="M82.427,27.425c-1.161,2.73-1.357,5.73,1.127,5.73c2.482,0,4.498-2.404,4.498-5.372   c0-2.965-8.356-20.812-10.841-20.812C74.724,6.972,86.111,18.784,82.427,27.425z"></path><path display="inline" d="M93.379,35.466c-0.348,1.475-1.448,2.482-2.468,2.243c-1.021-0.235-1.568-1.624-1.228-3.099   c0.341-1.474,3.56-12.282,4.58-12.045C95.283,22.8,93.72,33.991,93.379,35.466z"></path><path display="inline" d="M100.115,61.899c-0.316-2.483-0.717-5.008-1.181-7.461c-1.602-10.446-15.247-19.959-28.628-19.959   c-1.079,0-2.156,0.063-3.185,0.183c-1.272,0.129-2.541,0.279-3.806,0.446c4.023-4.926,5.485-11.184,3.648-16.918   C63.813,8.371,52.07,3.329,40.792,6.946c-4.674,1.498-8.719,4.335-11.528,8.024c-4.434-1.366-9.394-1.318-14.052,0.175   C3.93,18.759-2.69,29.692,0.455,39.516c2.136,6.658,8.375,11.326,15.987,12.243c-1.471,0.914-2.928,1.849-4.353,2.828   c-5.306,3.728-8.201,8.623-8.15,13.785c0.045,4.668,2.531,9.003,6.786,11.867c1.877,1.359,3.727,2.796,5.527,4.296   c4.932,3.848,10.694,5.966,16.226,5.965c3.439,0,6.64-0.794,9.52-2.363c10.922-6.054,23.632-9.254,36.756-9.254   c0.81,0,1.625,0.013,2.443,0.037c6.285,0.192,11.981-1.951,15.449-5.789C99.357,70.132,100.557,66.259,100.115,61.899z    M1.595,39.15c-2.943-9.195,3.329-19.452,13.982-22.865c4.509-1.447,9.315-1.474,13.578-0.101l0.457,0.313   c2.665-3.893,6.765-6.88,11.546-8.412c10.652-3.415,21.718,1.28,24.667,10.47c1.841,5.745,0.104,12.067-4.341,16.824   c-15.474,2.297-30.245,7.514-43.33,15.321C10.3,50.329,3.729,45.805,1.595,39.15z M40.845,86.038   c-2.517,1.371-5.332,2.067-8.367,2.068c-5,0-10.24-1.939-14.723-5.435c-1.813-1.511-3.706-2.98-5.659-4.396   c-3.625-2.441-5.725-6.06-5.763-9.927c-0.042-4.351,2.491-8.543,7.123-11.797c3.372-2.318,6.886-4.437,10.511-6.374   c0.063,0.071,0.129,0.141,0.206,0.202c0.195,0.156,19.505,15.796,23.507,31.804c0.041,0.162,0.116,0.306,0.195,0.443   C45.466,83.646,43.116,84.779,40.845,86.038z M66.713,77.396c-5.393,0.804-10.646,2.127-15.656,3.979   c-0.003-0.011-0.002-0.021-0.005-0.031C47.25,66.142,31.41,51.943,27.305,48.466c7.922-3.9,16.352-6.9,25.097-8.932   C55.561,44.606,67.194,64.236,66.713,77.396z M89.471,59.092c-0.99,0-1.796-2.779-1.796-6.211c0-3.43,0.806-6.208,1.796-6.208   c0.993,0,1.794,2.778,1.794,6.208C91.265,56.313,90.464,59.092,89.471,59.092z"></path></g><g display="none"><g display="inline"><g><g><g><path fill="currentColor" d="M89.836,94.67c-0.868,3.194-3.746,5.783-6.429,5.783H18.265c-2.683,0-5.563-2.589-6.431-5.783       L3.888,65.437c-0.867-3.191,1.249-5.781,4.728-5.781h84.442c3.479,0,5.592,2.59,4.725,5.781L89.836,94.67z"></path></g><g><path d="M83.407,101.816H18.265c-3.309,0-6.712-2.981-7.747-6.789L2.572,65.794c-0.519-1.909-0.205-3.744,0.884-5.169       c1.134-1.483,3.014-2.333,5.159-2.333h84.442c2.144,0,4.023,0.85,5.156,2.331c1.089,1.425,1.403,3.262,0.885,5.171       l-7.946,29.233C90.117,98.835,86.716,101.816,83.407,101.816z M13.15,94.313c0.704,2.589,3.046,4.777,5.115,4.777h65.142       c2.067,0,4.409-2.188,5.112-4.777l7.946-29.233c0.291-1.071,0.143-2.065-0.419-2.799c-0.621-0.813-1.683-1.262-2.989-1.262       H8.615c-1.307,0-2.37,0.449-2.992,1.263c-0.561,0.734-0.71,1.728-0.419,2.798"></path></g></g><g><path fill="currentColor" d="M100.038,65.021c0,3.081-2.224,5.578-4.965,5.578H6.599c-2.744,0-4.965-2.497-4.965-5.578l0,0      c0-3.079,2.221-5.576,4.965-5.576h88.474C97.814,59.444,100.038,61.941,100.038,65.021L100.038,65.021z"></path><path d="M95.073,71.962H6.599c-3.49,0-6.329-3.113-6.329-6.941c0-3.827,2.839-6.939,6.329-6.939h88.474      c3.489,0,6.328,3.112,6.328,6.939C101.401,68.849,98.563,71.962,95.073,71.962z M6.599,60.808c-1.986,0-3.601,1.891-3.601,4.213      c0,2.324,1.615,4.215,3.601,4.215h88.474c1.985,0,3.602-1.891,3.602-4.215c0-2.322-1.616-4.213-3.602-4.213H6.599z"></path></g></g><g><g><path d="M52.458,48.737c-4.883,0-9.723-2.286-12.945-6.116c-2.675-3.18-3.882-7.073-3.311-10.68      c0.493-3.115,2.262-5.765,4.981-7.459c0.624-0.389,1.35-0.586,2.157-0.586c5.675,0,15.565,10.711,17.491,17.439      c0.98,3.425-0.431,4.908-1.358,5.486C57.463,48.075,55.037,48.737,52.458,48.737z M43.34,26.624      c-0.293,0-0.527,0.057-0.714,0.173c-2.038,1.27-3.362,3.249-3.73,5.571c-0.448,2.826,0.538,5.923,2.704,8.498      c2.67,3.173,6.831,5.144,10.858,5.144c2.068,0,3.995-0.52,5.571-1.502c0.645-0.401,0.389-1.689,0.18-2.421      C56.514,36.161,47.342,26.624,43.34,26.624z"></path></g><g><line fill="currentColor" x1="40.394" y1="42.148" x2="38.809" y2="43.137"></line><path d="M38.811,44.5c-0.455,0-0.9-0.228-1.159-0.642c-0.398-0.639-0.204-1.48,0.436-1.879l1.585-0.988      c0.64-0.399,1.479-0.203,1.879,0.436c0.398,0.639,0.204,1.48-0.436,1.879l-1.585,0.988C39.306,44.434,39.057,44.5,38.811,44.5z"></path></g><g><line fill="currentColor" x1="38.01" y1="38.185" x2="36.148" y2="38.707"></line><path d="M36.147,40.071c-0.596,0-1.144-0.394-1.312-0.996c-0.204-0.725,0.22-1.478,0.945-1.681l1.862-0.522      c0.722-0.205,1.478,0.22,1.681,0.945c0.204,0.725-0.22,1.478-0.945,1.681l-1.862,0.522      C36.394,40.055,36.27,40.071,36.147,40.071z"></path></g><g><line fill="currentColor" x1="37.278" y1="34.2" x2="35.32" y2="34.128"></line><path d="M37.279,35.564c-0.017,0-0.034,0-0.051-0.001l-1.958-0.072c-0.753-0.027-1.341-0.66-1.313-1.413      c0.027-0.753,0.666-1.334,1.413-1.313l1.958,0.072c0.753,0.027,1.341,0.66,1.313,1.413      C38.614,34.986,38.009,35.564,37.279,35.564z"></path></g><g><line fill="currentColor" x1="38.111" y1="29.406" x2="36.209" y2="29.001"></line><path d="M38.113,30.77c-0.094,0-0.189-0.01-0.285-0.03l-1.902-0.405c-0.737-0.157-1.207-0.881-1.05-1.618      c0.157-0.737,0.88-1.205,1.618-1.05l1.902,0.405c0.737,0.157,1.207,0.881,1.05,1.618C39.309,30.331,38.743,30.77,38.113,30.77z"></path></g><g><line fill="currentColor" x1="43.824" y1="44.979" x2="42.668" y2="46.338"></line><path d="M42.668,47.702c-0.313,0-0.626-0.107-0.883-0.325c-0.574-0.488-0.644-1.348-0.155-1.922l1.156-1.359      c0.488-0.574,1.349-0.643,1.922-0.155c0.574,0.488,0.644,1.348,0.155,1.922l-1.156,1.359      C43.438,47.539,43.054,47.702,42.668,47.702z"></path></g><g><line fill="currentColor" x1="47.996" y1="46.82" x2="47.463" y2="48.445"></line><path d="M47.463,49.809c-0.141,0-0.284-0.022-0.425-0.068c-0.716-0.235-1.106-1.005-0.871-1.721l0.533-1.625      c0.235-0.717,1.005-1.106,1.721-0.871s1.105,1.005,0.871,1.721l-0.533,1.625C48.57,49.444,48.037,49.809,47.463,49.809z"></path></g><g><line fill="currentColor" x1="53.547" y1="47.633" x2="53.399" y2="49.316"></line><path d="M53.401,50.68c-0.04,0-0.08-0.001-0.121-0.005c-0.75-0.065-1.305-0.727-1.239-1.478l0.147-1.684      c0.066-0.75,0.72-1.313,1.478-1.239c0.75,0.065,1.305,0.727,1.239,1.478l-0.147,1.684C54.695,50.145,54.101,50.68,53.401,50.68z      "></path></g></g><g><g><path d="M80.777,41.258c-0.258,0-0.518-0.028-0.771-0.083c-7.232-1.577-11.614-9.753-9.769-18.225      c1.612-7.398,7.496-12.768,13.99-12.768c0.831,0,1.665,0.09,2.479,0.268c3.107,0.676,4.403,4.915,3.648,11.935      C89.514,30.221,85.985,41.258,80.777,41.258z M84.229,12.909c-5.222,0-9.984,4.467-11.326,10.621      c-1.525,7.003,1.922,13.723,7.686,14.979c0.063,0.014,0.126,0.021,0.189,0.021c2.248,0,5.933-7.74,6.868-16.438      c0.596-5.547-0.313-8.716-1.519-8.978C85.503,12.978,84.865,12.909,84.229,12.909z"></path></g><g><line fill="currentColor" x1="71.11" y1="23.432" x2="69.197" y2="23.017"></line><path d="M71.111,24.796c-0.096,0-0.192-0.01-0.29-0.031l-1.913-0.416c-0.736-0.16-1.203-0.886-1.044-1.622      c0.16-0.735,0.883-1.204,1.622-1.043l1.913,0.416c0.736,0.16,1.203,0.886,1.044,1.622C72.305,24.36,71.739,24.796,71.111,24.796      z"></path></g><g><line fill="currentColor" x1="72.953" y1="18.589" x2="71.259" y2="17.604"></line><path d="M72.952,19.953c-0.233,0-0.469-0.06-0.685-0.185l-1.694-0.985c-0.651-0.378-0.872-1.213-0.493-1.864      c0.379-0.652,1.214-0.872,1.864-0.493l1.694,0.985c0.651,0.378,0.872,1.213,0.493,1.864      C73.879,19.71,73.422,19.953,72.952,19.953z"></path></g><g><line fill="currentColor" x1="75.917" y1="14.954" x2="74.676" y2="13.441"></line><path d="M75.918,16.317c-0.395,0-0.785-0.17-1.056-0.499l-1.241-1.513c-0.478-0.583-0.393-1.442,0.189-1.919      c0.584-0.478,1.441-0.393,1.92,0.189l1.241,1.513c0.478,0.583,0.393,1.442-0.189,1.919      C76.528,16.216,76.222,16.317,75.918,16.317z"></path></g><g><line fill="currentColor" x1="80.627" y1="11.867" x2="79.71" y2="10.135"></line><path d="M80.628,13.23c-0.488,0-0.961-0.263-1.206-0.726l-0.917-1.731c-0.353-0.666-0.099-1.491,0.566-1.843      c0.666-0.352,1.49-0.1,1.844,0.567l0.917,1.731c0.353,0.666,0.099,1.491-0.566,1.843C81.062,13.18,80.844,13.23,80.628,13.23z"></path></g><g><line fill="currentColor" x1="70.944" y1="28.181" x2="68.995" y2="28.373"></line><path d="M68.993,29.736c-0.692,0-1.286-0.526-1.355-1.23c-0.073-0.75,0.475-1.417,1.224-1.491l1.949-0.192      c0.754-0.083,1.417,0.473,1.491,1.223c0.073,0.75-0.475,1.417-1.224,1.491l-1.949,0.192      C69.083,29.734,69.038,29.736,68.993,29.736z"></path></g><g><line fill="currentColor" x1="72.125" y1="32.72" x2="70.367" y2="33.578"></line><path d="M70.368,34.942c-0.505,0-0.99-0.282-1.227-0.766c-0.33-0.677-0.05-1.493,0.628-1.824l1.758-0.858      c0.674-0.33,1.493-0.051,1.823,0.627c0.33,0.677,0.05,1.493-0.628,1.824l-1.758,0.858      C70.772,34.897,70.569,34.942,70.368,34.942z"></path></g><g><line fill="currentColor" x1="75.124" y1="37.49" x2="73.568" y2="38.681"></line><path d="M73.569,40.044c-0.41,0-0.815-0.184-1.084-0.535c-0.458-0.598-0.344-1.454,0.254-1.912l1.556-1.19      c0.601-0.458,1.454-0.344,1.912,0.254s0.344,1.454-0.254,1.912l-1.556,1.19C74.149,39.953,73.858,40.044,73.569,40.044z"></path></g></g><g><path d="M18.745,60.619h-3.428c-0.605,0-1.139-0.399-1.309-0.98C5.625,30.99,12.12,18.264,12.4,17.736     c1.651-3.435,4.158-5.485,7.426-6.043c9.978-1.714,23.543,11.678,24.116,12.249c0.533,0.532,0.535,1.395,0.003,1.928     c-0.53,0.534-1.395,0.534-1.928,0.004c-0.131-0.13-13.126-12.968-21.733-11.493c-2.379,0.408-4.163,1.908-5.451,4.586     c-0.084,0.163-6.086,12.183,1.509,38.925h0.664c-1.496-6.368-6.038-28.396,0.454-36.804c1.755-2.273,4.147-3.432,7.11-3.444     c0.844-0.047,8.796-0.288,16.472,8.024c0.511,0.553,0.477,1.416-0.077,1.927c-0.553,0.511-1.416,0.477-1.927-0.077     c-7.057-7.641-14.234-7.16-14.311-7.151c-0.036,0.003-0.073,0.004-0.109,0.004c-2.125,0-3.76,0.78-4.998,2.384     c-6.654,8.618,0.373,35.881,0.445,36.156c0.107,0.408,0.019,0.844-0.24,1.178C19.566,60.424,19.167,60.619,18.745,60.619z"></path></g><g><path d="M79.207,60.375h-6.608c-0.438,0-0.849-0.209-1.104-0.563c-0.257-0.354-0.327-0.811-0.191-1.226l6.362-19.338     c0.236-0.715,1.008-1.104,1.722-0.869c0.716,0.235,1.105,1.006,0.87,1.722l-5.773,17.548h3.525l2.293-17.663     c0.098-0.747,0.778-1.278,1.528-1.177c0.747,0.097,1.273,0.781,1.177,1.528l-2.447,18.85     C80.471,59.867,79.893,60.375,79.207,60.375z"></path></g></g></g><g display="none"><path display="inline" d="M99.506,63.729c0-3.754-2.786-6.729-6.21-6.729H6.469c-3.425,0-6.211,2.975-6.211,6.729   c0,3.426,2.318,6.243,5.321,6.729l6.027,22.017C12.458,95.608,15.283,98,17.917,98h63.927c2.635,0,5.46-2.43,6.31-5.563   l6.028-22.034C97.188,69.917,99.506,67.154,99.506,63.729z"></path><g display="inline"><g><path d="M57.648,44.457c-5.295,3.301-13.289,1.58-17.856-3.847c-4.566-5.429-3.972-12.502,1.324-15.804     C46.414,21.501,62.943,41.156,57.648,44.457z"></path><path d="M51.475,47.474c-4.794,0-9.543-2.245-12.706-6.002c-2.625-3.123-3.81-6.942-3.249-10.481     c0.483-3.057,2.22-5.656,4.888-7.32c0.612-0.382,1.325-0.576,2.117-0.576c5.57,0,15.277,10.511,17.166,17.114     c0.962,3.362-0.422,4.816-1.333,5.385C56.385,46.823,54.003,47.474,51.475,47.474z M42.525,25.771     c-0.287,0-0.517,0.056-0.701,0.17c-2,1.245-3.299,3.187-3.66,5.466c-0.439,2.773,0.528,5.813,2.653,8.341     c2.62,3.113,6.704,5.048,10.657,5.048c2.029,0,3.919-0.511,5.467-1.476c0.633-0.395,0.379-1.658,0.177-2.376     C55.454,35.13,46.453,25.771,42.525,25.771z"></path></g><g><line x1="39.634" y1="41.007" x2="38.079" y2="41.977"></line><path d="M38.08,43.314c-0.447,0-0.884-0.224-1.136-0.629c-0.391-0.628-0.2-1.453,0.427-1.845l1.555-0.97     c0.627-0.389,1.454-0.199,1.844,0.428c0.391,0.627,0.199,1.453-0.427,1.843l-1.555,0.97C38.566,43.25,38.321,43.314,38.08,43.314     z"></path></g><g><line x1="37.295" y1="37.117" x2="35.468" y2="37.63"></line><path d="M35.467,38.968c-0.586,0-1.123-0.386-1.29-0.977c-0.198-0.712,0.217-1.451,0.928-1.651l1.827-0.512     c0.711-0.203,1.45,0.216,1.65,0.928c0.199,0.711-0.215,1.451-0.927,1.65l-1.829,0.512C35.708,38.952,35.586,38.968,35.467,38.968     z"></path></g><g><line x1="36.575" y1="33.207" x2="34.654" y2="33.136"></line><path d="M36.576,34.545c-0.016,0-0.033,0-0.049,0l-1.921-0.07c-0.739-0.027-1.315-0.649-1.289-1.388     c0.029-0.737,0.662-1.318,1.386-1.288l1.921,0.07c0.74,0.028,1.315,0.649,1.289,1.387C37.887,33.978,37.293,34.545,36.576,34.545     z"></path></g><g><line x1="37.394" y1="28.502" x2="35.527" y2="28.104"></line><path d="M37.396,29.839c-0.093,0-0.187-0.01-0.28-0.029l-1.867-0.398c-0.724-0.153-1.185-0.865-1.03-1.587     c0.153-0.724,0.869-1.184,1.587-1.031l1.866,0.397c0.723,0.154,1.185,0.865,1.031,1.587     C38.568,29.409,38.014,29.839,37.396,29.839z"></path></g><g><line x1="43" y1="43.785" x2="41.866" y2="45.118"></line><path d="M41.866,46.456c-0.307,0-0.615-0.104-0.866-0.318c-0.563-0.479-0.632-1.324-0.153-1.887l1.134-1.333     c0.478-0.563,1.323-0.632,1.888-0.152c0.563,0.48,0.63,1.325,0.151,1.888l-1.134,1.333     C42.621,46.297,42.244,46.456,41.866,46.456z"></path></g><g><line x1="47.094" y1="45.591" x2="46.571" y2="47.186"></line><path d="M46.571,48.525c-0.138,0-0.279-0.021-0.417-0.067c-0.702-0.229-1.085-0.986-0.854-1.688l0.523-1.595     c0.23-0.703,0.985-1.085,1.688-0.855c0.702,0.23,1.084,0.986,0.855,1.689l-0.522,1.594     C47.659,48.167,47.135,48.525,46.571,48.525z"></path></g><g><line x1="52.542" y1="46.389" x2="52.396" y2="48.041"></line><path d="M52.397,49.379c-0.038,0-0.078-0.001-0.115-0.006c-0.736-0.063-1.282-0.713-1.217-1.45l0.143-1.65     c0.064-0.736,0.725-1.281,1.449-1.217c0.736,0.063,1.282,0.713,1.217,1.45l-0.144,1.652     C53.671,48.854,53.087,49.379,52.397,49.379z"></path></g></g><g display="inline"><g><path d="M78.793,38.743c-6.388-1.393-10.221-8.685-8.563-16.293c1.659-7.604,8.181-12.639,14.57-11.245     C91.192,12.596,85.182,40.136,78.793,38.743z"></path><path d="M79.266,40.132c-0.254,0-0.51-0.028-0.758-0.082c-7.097-1.547-11.396-9.57-9.587-17.884     c1.583-7.261,7.358-12.531,13.731-12.531c0.816,0,1.634,0.089,2.432,0.263c3.052,0.665,4.324,4.823,3.582,11.712     C87.838,29.3,84.374,40.132,79.266,40.132z M82.652,12.313c-5.124,0-9.797,4.383-11.113,10.422     c-1.498,6.872,1.884,13.468,7.539,14.701c0.062,0.014,0.124,0.021,0.188,0.021c2.206,0,5.82-7.596,6.739-16.133     c0.586-5.444-0.307-8.553-1.489-8.812C83.904,12.379,83.277,12.313,82.652,12.313z"></path></g><g><line x1="69.779" y1="22.638" x2="67.9" y2="22.23"></line><path d="M69.78,23.977c-0.095,0-0.191-0.01-0.285-0.031l-1.878-0.407c-0.722-0.157-1.182-0.87-1.023-1.593     c0.156-0.723,0.87-1.18,1.59-1.022l1.877,0.407c0.724,0.156,1.183,0.87,1.026,1.592C70.948,23.55,70.396,23.977,69.78,23.977z"></path></g><g><line x1="71.588" y1="17.885" x2="69.923" y2="16.919"></line><path d="M71.586,19.225c-0.229,0-0.461-0.057-0.672-0.182l-1.662-0.968c-0.641-0.372-0.856-1.189-0.483-1.829     c0.371-0.639,1.189-0.856,1.828-0.484l1.662,0.967c0.641,0.372,0.855,1.191,0.484,1.831     C72.495,18.987,72.047,19.225,71.586,19.225z"></path></g><g><line x1="74.496" y1="14.318" x2="73.279" y2="12.833"></line><path d="M74.497,15.657c-0.389,0-0.771-0.167-1.036-0.49l-1.218-1.485c-0.469-0.571-0.386-1.415,0.185-1.882     c0.572-0.473,1.414-0.387,1.886,0.185l1.216,1.485c0.47,0.571,0.387,1.414-0.186,1.883     C75.097,15.557,74.794,15.657,74.497,15.657z"></path></g><g><line x1="79.116" y1="11.289" x2="78.219" y2="9.59"></line><path d="M79.117,12.626c-0.478,0-0.941-0.258-1.182-0.712l-0.9-1.698c-0.347-0.654-0.098-1.464,0.558-1.81     c0.657-0.349,1.463-0.096,1.808,0.557l0.9,1.699c0.347,0.653,0.097,1.462-0.559,1.809C79.543,12.578,79.33,12.626,79.117,12.626z     "></path></g><g><line x1="69.614" y1="27.299" x2="67.703" y2="27.487"></line><path d="M67.7,28.826c-0.68,0-1.262-0.516-1.33-1.207c-0.071-0.736,0.465-1.392,1.202-1.464l1.913-0.188     c0.743-0.076,1.389,0.467,1.462,1.202c0.071,0.735-0.464,1.39-1.2,1.462l-1.915,0.188C67.787,28.824,67.745,28.826,67.7,28.826z"></path></g><g><line x1="70.773" y1="31.754" x2="69.05" y2="32.595"></line><path d="M69.051,33.933c-0.496,0-0.973-0.276-1.204-0.751c-0.325-0.664-0.05-1.466,0.615-1.79l1.726-0.842     c0.67-0.324,1.465-0.047,1.79,0.616c0.324,0.665,0.046,1.467-0.616,1.791l-1.726,0.841C69.445,33.89,69.246,33.933,69.051,33.933     z"></path></g><g><line x1="73.718" y1="36.435" x2="72.19" y2="37.604"></line><path d="M72.191,38.942c-0.401,0-0.802-0.18-1.064-0.525c-0.45-0.587-0.336-1.427,0.25-1.876l1.528-1.168     c0.585-0.451,1.429-0.337,1.875,0.249c0.449,0.588,0.337,1.428-0.25,1.876l-1.526,1.168     C72.762,38.853,72.476,38.942,72.191,38.942z"></path></g></g><path display="inline" stroke="currentColor" stroke-width="2.6767" stroke-linecap="round" stroke-linejoin="round" d="M42.171,24.087   c0,0-16.097-26.26-28.829-6.41c0,0-6.488,12.202,1.68,40.119h3.365c0,0-10.33-39.499,5.763-39.499c0,0,7.688-0.62,15.136,7.443"></path><polyline display="inline" stroke="currentColor" stroke-width="2.6767" stroke-linecap="round" stroke-linejoin="round" points="   77.485,38.578 71.24,57.554 77.724,57.554 80.126,39.056  "></polyline></g><g display="none"><path display="inline" d="M26.327,97.543L5.082,77.107c-0.631-0.606-1.389-0.842-1.995-0.21c-0.607,0.631-0.342,1.379,0.288,1.986   l21.246,20.433c0.631,0.607,1.389,0.843,1.996,0.212C27.222,98.898,26.958,98.149,26.327,97.543z"></path><g display="inline"><line fill="currentColor" x1="90.055" y1="10.018" x2="97.978" y2="1.781"></line><path d="M88.956,11.16c-0.63-0.606-0.651-1.61-0.044-2.241l7.922-8.238c0.608-0.631,1.612-0.649,2.242-0.043    c0.63,0.607,0.65,1.61,0.044,2.24l-7.922,8.238C90.591,11.749,89.587,11.767,88.956,11.16z"></path></g><g display="inline"><line fill="currentColor" x1="11.845" y1="86.34" x2="23.732" y2="73.981"></line><rect x="16.203" y="71.587" transform="matrix(0.7207 0.6933 -0.6933 0.7207 60.5412 10.0584)" width="3.169" height="17.148"></rect></g><g display="inline"><line fill="currentColor" x1="28.725" y1="78.784" x2="16.838" y2="91.145"></line><rect x="21.196" y="76.392" transform="matrix(0.7205 0.6934 -0.6934 0.7205 65.2831 7.9482)" width="3.17" height="17.146"></rect></g><g display="inline"><path fill="currentColor" d="M74.774,20.554l9.371-9.743c1.158-1.203,3.225-1.087,4.611,0.247l0,0c1.396,1.34,1.588,3.398,0.431,4.601    l-9.372,9.744"></path><path d="M78.711,26.552c-0.633-0.611-0.653-1.621-0.045-2.255l9.371-9.744c0.537-0.556,0.358-1.63-0.386-2.345    c-0.741-0.714-1.821-0.849-2.355-0.292l-9.372,9.744c-0.61,0.634-1.619,0.654-2.253,0.045c-0.635-0.611-0.655-1.622-0.045-2.255    l9.37-9.744c1.763-1.833,4.844-1.741,6.868,0.205c2.022,1.946,2.235,5.021,0.472,6.854l-9.37,9.744    C80.355,27.142,79.346,27.162,78.711,26.552z"></path></g><g display="inline"><g><path fill="currentColor" d="M38.44,82.441c-1.553,1.613-3.998,1.781-5.467,0.369L19.544,69.894c-1.468-1.412-1.397-3.862,0.155-5.478     l46.217-48.053c1.549-1.61,3.993-1.775,5.462-0.363l13.43,12.916c1.469,1.414,1.398,3.861-0.15,5.472L38.44,82.441z"></path><path d="M31.874,83.952L18.444,71.036c-2.094-2.016-2.044-5.476,0.112-7.719l46.218-48.053c2.152-2.238,5.605-2.42,7.702-0.405     l13.43,12.915c2.094,2.015,2.046,5.474-0.106,7.712L39.582,83.54C37.427,85.782,33.968,85.966,31.874,83.952z M70.279,17.142     c-0.833-0.803-2.28-0.66-3.221,0.319L20.84,65.515c-0.943,0.98-1.033,2.434-0.198,3.237l13.43,12.915     c0.834,0.803,2.28,0.656,3.226-0.324l46.217-48.055c0.94-0.979,1.028-2.428,0.195-3.23L70.279,17.142z"></path></g><g><g><line fill="currentColor" x1="61.392" y1="21.066" x2="67.64" y2="27.075"></line><path d="M66.541,28.217l-6.247-6.009c-0.631-0.606-0.65-1.609-0.044-2.24c0.606-0.63,1.608-0.65,2.239-0.045l6.248,6.009      c0.632,0.607,0.651,1.61,0.044,2.242C68.175,28.804,67.172,28.824,66.541,28.217z"></path></g><g><line fill="currentColor" x1="42.805" y1="40.392" x2="49.052" y2="46.4"></line><path d="M47.953,47.543l-6.247-6.009c-0.631-0.607-0.651-1.609-0.043-2.241c0.606-0.63,1.609-0.65,2.24-0.044l6.247,6.009      c0.632,0.605,0.651,1.61,0.044,2.24C49.587,48.131,48.585,48.15,47.953,47.543z"></path></g><g><line fill="currentColor" x1="24.217" y1="59.718" x2="30.464" y2="65.729"></line><path d="M29.367,66.87l-6.249-6.01c-0.63-0.606-0.649-1.609-0.043-2.24c0.607-0.631,1.61-0.651,2.241-0.043l6.248,6.008      c0.631,0.606,0.65,1.61,0.043,2.241C31,67.456,29.998,67.476,29.367,66.87z"></path></g><g><line fill="currentColor" x1="56.745" y1="25.897" x2="59.243" y2="28.298"></line><path d="M58.144,29.441l-2.495-2.401c-0.631-0.607-0.651-1.609-0.044-2.241c0.606-0.63,1.608-0.65,2.239-0.043l2.499,2.401      c0.63,0.607,0.648,1.61,0.043,2.241C59.778,30.028,58.775,30.047,58.144,29.441z"></path></g><g><line fill="currentColor" x1="38.161" y1="45.222" x2="40.657" y2="47.624"></line><path d="M39.558,48.766l-2.498-2.402c-0.63-0.606-0.649-1.61-0.042-2.241c0.606-0.631,1.609-0.65,2.24-0.044l2.497,2.402      c0.63,0.607,0.649,1.61,0.042,2.24C41.192,49.352,40.188,49.374,39.558,48.766z"></path></g><g><line fill="currentColor" x1="28.868" y1="54.883" x2="31.366" y2="57.285"></line><path d="M30.267,58.427l-2.497-2.401c-0.631-0.607-0.65-1.61-0.044-2.241c0.607-0.63,1.61-0.65,2.241-0.045l2.498,2.402      c0.631,0.607,0.65,1.61,0.043,2.242C31.9,59.013,30.898,59.032,30.267,58.427z"></path></g><g><line fill="currentColor" x1="52.099" y1="30.729" x2="54.596" y2="33.131"></line><path d="M53.497,34.273L51,31.872c-0.63-0.607-0.651-1.608-0.043-2.24c0.608-0.631,1.609-0.65,2.24-0.043l2.498,2.401      c0.629,0.606,0.65,1.609,0.043,2.24C55.131,34.86,54.129,34.879,53.497,34.273z"></path></g><g><line fill="currentColor" x1="47.452" y1="35.56" x2="49.951" y2="37.96"></line><path d="M48.853,39.103l-2.497-2.401c-0.631-0.606-0.651-1.609-0.044-2.24c0.607-0.631,1.609-0.651,2.24-0.044l2.498,2.401      c0.631,0.606,0.65,1.609,0.043,2.241C50.485,39.689,49.482,39.708,48.853,39.103z"></path></g><g><line fill="currentColor" x1="33.512" y1="50.054" x2="36.01" y2="52.456"></line><path d="M34.91,53.598l-2.497-2.401c-0.631-0.607-0.65-1.61-0.043-2.24c0.606-0.63,1.61-0.652,2.24-0.045l2.498,2.402      c0.631,0.606,0.649,1.609,0.043,2.239C36.544,54.184,35.541,54.204,34.91,53.598z"></path></g></g></g></g><g display="none"><g display="inline"><path d="M44.271,87.084c-1.113,0-2.015-0.902-2.015-2.015v-3.951c0-1.112,0.902-2.015,2.015-2.015    c1.112,0,2.014,0.902,2.014,2.015v3.951C46.286,86.182,45.384,87.084,44.271,87.084z"></path></g><g display="inline"><path d="M56.21,87.084c-1.113,0-2.015-0.902-2.015-2.015v-3.951c0-1.112,0.901-2.015,2.015-2.015c1.112,0,2.014,0.902,2.014,2.015    v3.951C58.224,86.182,57.322,87.084,56.21,87.084z"></path></g><g display="inline"><path fill="none" stroke="currentColor" stroke-width="4.4766" stroke-linecap="round" stroke-linejoin="round" d="M13.124,48.44"></path></g><g display="inline"><path fill="none" stroke="currentColor" stroke-width="4.4766" stroke-linecap="round" stroke-linejoin="round" d="M89.697,48.44"></path></g><g display="inline"><path d="M38.993,6.653l1.2,9.347h20.593l0.701-9.326C50.072,3.391,38.993,6.653,38.993,6.653z"></path><path d="M6.013,20.946l6.159,8.196L29.97,18.785L25.455,9.63C13.782,12.267,6.013,20.946,6.013,20.946z"></path><path d="M74.99,9.63l-4.515,9.155l17.799,10.357l6.159-8.196C94.434,20.946,86.665,12.267,74.99,9.63z"></path></g><path display="inline" d="M100.488,58.112c0-0.014,0.006-0.024,0.006-0.038c0-22.243-22.544-40.338-50.253-40.338   c-27.711,0-50.255,18.096-50.255,40.338c0,0.021,0.004,0.041,0.005,0.062c0,0.055-0.005,0.107-0.005,0.162   c0,0.168,0.028,0.329,0.065,0.487c-0.018,0.095-0.03,0.186-0.03,0.301c0,0.018,0.002,0.035,0.002,0.053   c-0.001,0.019-0.002-0.021-0.002,0.004C0.022,68.008,5.993,75,13.333,75h2.996C16.185,76,16,76.301,16,76.929V87.39   c0,4.196,3.514,7.61,7.709,7.61h51.105C79.01,95,82,91.586,82,87.39V76.929C82,76.301,82.338,76,82.194,75h4.961   c7.339,0,13.309-6.992,13.309-15.857c0-0.017-0.002,0.002-0.002-0.014c0-0.023,0.002-0.032,0.002-0.057   c0-0.125-0.021-0.226-0.041-0.338c0.041-0.152,0.071-0.261,0.071-0.44C100.494,58.232,100.488,58.174,100.488,58.112z M96,58.065   c0,0,0,3.935-1.732,7.436C92.658,68.333,90.078,70,87.155,70h-3.122c-6.042-1-10.406-5.136-10.564-9.904   c-0.201-6.156,6.738-11.315,15.529-11.606c1.962-0.064,3.818,0.153,5.553,0.535C95.502,51.898,96,54.959,96,58.063 M5.435,62.37   c-0.199-0.049-0.39-0.115-0.579-0.188c-0.229-1.021-0.358-2.101-0.358-3.227c0-0.205-0.037-0.309-0.088-0.497   c0.033-0.153,0.053-0.267,0.053-0.431c0-8.798,4.073-16.858,10.811-23.1c2.593,2.854,3.508,8.685,1.989,14.897   C15.292,57.87,9.998,63.486,5.435,62.37z M51.763,60.012c-8.956,1.48-16.902-1.481-17.752-6.617   c-0.849-5.134,5.72-10.497,14.674-11.978c8.954-1.481,16.9,1.48,17.751,6.615C67.285,53.166,60.716,58.53,51.763,60.012z    M65.215,24.434c-0.11,4.696-6.913,8.343-15.193,8.147c-8.016-0.19-14.458-3.915-14.762-8.412c4.698-1.277,9.735-1.98,14.981-1.98   c5.238,0,10.269,0.703,14.96,1.978C65.203,24.256,65.217,24.344,65.215,24.434z M78,76.929V87.39c0,1.728-1.457,2.61-3.186,2.61   H23.709C21.982,90,21,89.117,21,87.39V76.929C21,76.249,20.799,76,21.167,75h56.19C77.725,76,78,76.249,78,76.929z"></path></g><g display="none"><path display="inline" d="M49.162,51.963c1.796-0.179,2.973-1.219,2.973-2.714c0-0.829-0.423-2.073-1.163-3.026   C59.2,43.554,65.01,25.995,65.01,16.496c0-11.49-8.234-16.632-16.396-16.632c-9.675,0-15.928,6.528-15.928,16.632   c0,9.329,5.601,26.442,13.595,29.581C45.468,47.046,45,48.376,45,49.249c0,1.207,0.826,2.142,2.126,2.54   c-0.539,1.15-0.823,2.637-0.205,4.396c1.824,5.197,7.038,7.848,6.263,14.063c-0.406,3.268-3.268,5.137-5.14,7.482   c-1.241,1.555-1.812,3.467-1.987,5.411c-0.502,5.555,3.739,10.28,3.231,15.891c-0.166,1.833,1.856,0.715,1.967-0.5   c0.377-4.153-1.102-7.69-2.402-11.572c-1.279-3.818-0.758-6.976,2.081-9.853c1.253-1.27,2.297-2.559,3.188-4.099   c1.59-2.748,1.467-6.345,0.483-9.237C53.589,60.785,47.737,55.604,49.162,51.963z M34.809,16.496c0-8.814,5.419-14.51,13.805-14.51   c8.671,0,14.272,5.695,14.272,14.51c0,10.518-6.8,27.96-14.039,27.96S34.809,27.014,34.809,16.496z M46.702,49.469   c0-0.935,0.986-2.469,1.863-2.469c0.002,0,0.003,0,0.005,0c0.876,0,1.862,1.535,1.862,2.468c0,0.998-1.518,0.829-1.822,0.829   C47.902,50.297,46.702,50.296,46.702,49.469z"></path></g><g display="none"><g display="inline"><path fill="none" stroke="currentColor" stroke-width="1.2488" stroke-linecap="round" stroke-linejoin="round" d="M12.963,28.917    l12.146,6.622c2.153,1.174,4.85,0.382,6.024-1.772l2.373-4.352c1.174-2.152,0.381-4.851-1.772-6.024L19.59,16.768"></path><path fill="currentColor" stroke="currentColor" stroke-width="1.2488" stroke-linecap="round" stroke-linejoin="round" d="M5.85,17.626    c-2.012,0.402-3.861,1.69-4.943,3.675c-1.899,3.48-0.718,7.787,2.636,9.617c3.032,1.651,6.802,0.718,8.901-2.047"></path><path fill="currentColor" stroke="currentColor" stroke-width="1.2488" stroke-linecap="round" stroke-linejoin="round" d="M19.705,16.386    c0.397-2.829-0.897-5.694-3.474-7.099c-3.355-1.83-7.613-0.49-9.513,2.992c-0.872,1.599-1.092,3.374-0.753,5.003"></path></g><g display="inline"><path fill="none" stroke="currentColor" stroke-width="1.2488" stroke-linecap="round" stroke-linejoin="round" d="M87.054,56.541    l-12.387-6.156c-2.196-1.091-4.861-0.196-5.954,2l-2.205,4.438c-1.092,2.196-0.196,4.862,1.999,5.954l12.39,6.156"></path><path fill="currentColor" stroke="currentColor" stroke-width="1.2488" stroke-linecap="round" stroke-linejoin="round" d="M94.592,67.555    c1.996-0.478,3.794-1.836,4.8-3.861c1.767-3.55,0.423-7.808-3.001-9.507c-3.091-1.54-6.822-0.463-8.814,2.38"></path><path fill="currentColor" stroke="currentColor" stroke-width="1.2488" stroke-linecap="round" stroke-linejoin="round" d="M80.795,69.318    c-0.289,2.844,1.111,5.657,3.739,6.964c3.422,1.699,7.626,0.199,9.39-3.351c0.813-1.632,0.968-3.413,0.566-5.028"></path></g><path display="inline" fill="currentColor" stroke="currentColor" stroke-width="1.8732" d="M84.008,52.29   C70.877,65.36,57.461,84.712,47,78.362c-11.442-6.935-31.668-28.385-24.445-47.835C30.541,9.038,52.93-2.618,69.602,12.118   C87.744,27.264,95.979,40.322,84.008,52.29z"></path><g display="inline"><path fill="currentColor" d="M59.428,76.469c-0.479,0.818-0.938,1.639-1.378,2.46c-0.852,2.934-8.344,4.763-10.064,3.59    c-3.077-0.549-6.345-1.504-9.899-2.794c-2.032-1.24-4.276-4.307-4.62-6.799c-0.312-2.378-0.491-4.791-0.535-7.238"></path><path d="M49.727,83.813c-0.816,0-1.542-0.12-2.074-0.403c-2.922-0.534-6.158-1.452-9.886-2.805l-0.168-0.081    c-2.116-1.292-4.652-4.515-5.06-7.471c-0.317-2.415-0.5-4.886-0.544-7.35l1.873-0.033c0.043,2.394,0.22,4.794,0.527,7.133    c0.312,2.262,2.394,4.988,4.103,6.074c3.658,1.323,6.816,2.213,9.652,2.719l0.197,0.035l0.166,0.113    c0.511,0.347,2.72,0.298,5.151-0.576c1.9-0.683,3.235-1.641,3.485-2.501l0.073-0.181c0.445-0.832,0.91-1.663,1.396-2.492    l1.617,0.947c-0.459,0.781-0.897,1.565-1.318,2.35c-0.641,1.951-3.158,3.115-4.619,3.64    C52.882,83.441,51.165,83.813,49.727,83.813z"></path></g><g display="inline"><path fill="none" stroke="currentColor" stroke-width="0.7833" stroke-linecap="round" stroke-linejoin="round" d="M38.833,66.489    c5.12,1.964,10.238,3.929,15.356,5.895"></path><path fill="none" stroke="currentColor" stroke-width="0.7833" stroke-linecap="round" stroke-linejoin="round" d="M38.011,70.09    c1.608-1.707,2.413-4.544,4.156-6.421c-1.228,2.645-1.503,5.533-1.214,8.393c2.147-1.404,2.816-4.043,4.415-6.005    c-0.476,1.448-0.92,3.017-1.396,4.501c1.099-1.104,2.445-2.287,3.833-2.867c-0.124,1.658-0.216,4.178,0.689,5.567    c0.648-1.28,2.004-2.132,2.987-3.247c-0.248,1.403-0.348,3.065,0.253,4.415c0.645-0.72,0.932-1.75,1.331-2.754"></path></g><g display="inline"><path d="M42.469,38.841c-3.225,4.813-6.96,9.316-9.899,7.23c-3.138-2.06-5.621-7.508-2.808-12.953    c2.857-5.77,7.7-8.687,11.066-5.604C44.414,30.609,45.592,34.28,42.469,38.841z"></path><path fill="currentColor" stroke="currentColor" stroke-width="0.0312" stroke-linecap="round" stroke-linejoin="round" d="M42.469,38.841    c-3.225,4.813-6.96,9.316-9.899,7.23c-3.138-2.06-5.621-7.508-2.808-12.953c2.857-5.77,7.7-8.687,11.066-5.604    C44.414,30.609,45.592,34.28,42.469,38.841z"></path></g><g display="inline"><g><path fill="none" stroke="currentColor" stroke-width="1.4937" stroke-linecap="round" stroke-linejoin="round" d="M51.72,35.718     c1.997,3.265,4.33,8.887,4.559,15.306"></path><path fill="none" stroke="currentColor" stroke-width="1.4937" stroke-linecap="round" stroke-linejoin="round" d="M63.133,38.347     c-5.916,2.974-11.426,5.487-15.737,5.351"></path></g></g></g><g display="none"><path display="inline" d="M27.004,0.234C16.554,0.234,8,8.733,8,19.179v61.545c0,10.445,8.554,18.943,19.004,18.943   C37.449,99.668,46,91.17,46,80.725V19.179C46,8.733,37.449,0.234,27.004,0.234z M26.503,3.347C35.233,3.347,42,10.449,42,19.179   v29.217c-5-1.15-18-3.425-31,0.24V19.179C11,10.449,17.771,3.347,26.503,3.347z"></path><path display="inline" d="M69.996,100C80.446,100,89,91.502,89,81.055V19.51C89,9.064,80.446,0.566,69.996,0.566   C59.551,0.566,51,9.064,51,19.51v61.545C51,91.502,59.551,100,69.996,100z M70.497,96.888C61.767,96.888,55,89.785,55,81.055   V51.838c5,1.15,18,3.426,31-0.239v29.456C86,89.785,79.229,96.888,70.497,96.888z"></path></g></svg></g><path fill="#31333b" fill-rule="nonzero" d="M7.68 19.46L0 19.46L0 0.02L2.71 0.02L2.71 17.52L7.68 17.52L7.68 19.46ZM11.30 19.66L11.30 19.66Q10.49 19.66 10.03 19.22Q9.58 18.79 9.40 18.14Q9.22 17.50 9.22 16.82L9.22 16.82L9.22 5.59L11.78 5.59L11.78 16.06Q11.78 16.80 12 17.22Q12.22 17.64 12.89 17.64L12.89 17.64Q13.32 17.64 13.79 17.39Q14.26 17.14 14.69 16.78L14.69 16.78L14.69 5.59L17.26 5.59L17.26 19.46L14.69 19.46L14.69 18.10Q14.02 18.74 13.16 19.20Q12.31 19.66 11.30 19.66ZM22.51 19.46L19.94 19.46L19.94 5.59L22.51 5.59L22.51 7.56Q23.28 6.29 24.05 5.86Q24.82 5.42 25.58 5.42L25.58 5.42Q25.68 5.42 25.76 5.42Q25.85 5.42 25.99 5.45L25.99 5.45L25.99 8.28Q25.70 8.16 25.33 8.08Q24.96 7.99 24.58 7.99L24.58 7.99Q23.98 7.99 23.48 8.27Q22.99 8.54 22.51 9.34L22.51 9.34L22.51 19.46ZM32.52 19.46L29.38 19.46L26.64 5.59L29.23 5.59L30.94 16.75L32.66 5.59L35.16 5.59L32.52 19.46ZM40.66 19.66L40.66 19.66Q39.02 19.66 38.14 19.02Q37.25 18.38 36.90 17.15Q36.55 15.91 36.55 14.11L36.55 14.11L36.55 10.94Q36.55 9.10 36.91 7.87Q37.27 6.65 38.17 6.02Q39.07 5.40 40.66 5.40L40.66 5.40Q42.41 5.40 43.24 6.12Q44.06 6.84 44.33 8.20Q44.59 9.55 44.59 11.45L44.59 11.45L44.59 12.58L39.12 12.58L39.12 15.36Q39.12 16.20 39.28 16.73Q39.43 17.26 39.78 17.51Q40.13 17.76 40.68 17.76L40.68 17.76Q41.26 17.76 41.56 17.48Q41.86 17.21 41.96 16.69Q42.07 16.18 42.07 15.48L42.07 15.48L42.07 14.64L44.57 14.64L44.57 15.17Q44.57 17.26 43.68 18.46Q42.79 19.66 40.66 19.66ZM39.12 10.44L39.12 11.18L42.07 11.18L42.07 9.94Q42.07 9.07 41.98 8.48Q41.88 7.90 41.58 7.60Q41.28 7.30 40.63 7.30L40.63 7.30Q40.01 7.30 39.68 7.58Q39.36 7.87 39.24 8.56Q39.12 9.24 39.12 10.44L39.12 10.44ZM51.98 19.46L49.27 19.46L49.27 2.04L45.98 2.04L45.98 0.02L55.18 0.02L55.18 2.04L51.98 2.04L51.98 19.46ZM59.47 19.46L56.90 19.46L56.90 5.59L59.47 5.59L59.47 7.56Q60.24 6.29 61.01 5.86Q61.78 5.42 62.54 5.42L62.54 5.42Q62.64 5.42 62.72 5.42Q62.81 5.42 62.95 5.45L62.95 5.45L62.95 8.28Q62.66 8.16 62.29 8.08Q61.92 7.99 61.54 7.99L61.54 7.99Q60.94 7.99 60.44 8.27Q59.95 8.54 59.47 9.34L59.47 9.34L59.47 19.46ZM67.03 19.66L67.03 19.66Q66.22 19.66 65.59 19.19Q64.97 18.72 64.61 17.99Q64.25 17.26 64.25 16.44L64.25 16.44Q64.25 15.14 64.68 14.26Q65.11 13.37 65.87 12.76Q66.62 12.14 67.62 11.69Q68.62 11.23 69.72 10.80L69.72 10.80L69.72 9.82Q69.72 8.98 69.62 8.42Q69.53 7.87 69.23 7.60Q68.93 7.32 68.33 7.32L68.33 7.32Q67.80 7.32 67.48 7.56Q67.15 7.80 67.01 8.24Q66.86 8.69 66.86 9.29L66.86 9.29L66.86 9.98L64.32 9.89Q64.37 7.58 65.38 6.49Q66.38 5.40 68.50 5.40L68.50 5.40Q70.56 5.40 71.42 6.53Q72.29 7.66 72.29 9.79L72.29 9.79L72.29 16.13Q72.29 16.78 72.32 17.38Q72.36 17.98 72.42 18.49Q72.48 19.01 72.53 19.46L72.53 19.46L70.18 19.46Q70.10 19.08 70.00 18.49Q69.89 17.90 69.84 17.42L69.84 17.42Q69.60 18.24 68.92 18.95Q68.23 19.66 67.03 19.66ZM68.04 17.45L68.04 17.45Q68.42 17.45 68.76 17.23Q69.10 17.02 69.36 16.74Q69.62 16.46 69.72 16.30L69.72 16.30L69.72 12.36Q69.12 12.70 68.59 13.03Q68.06 13.37 67.67 13.74Q67.27 14.11 67.04 14.58Q66.82 15.05 66.82 15.65L66.82 15.65Q66.82 16.49 67.13 16.97Q67.44 17.45 68.04 17.45ZM78.55 19.66L78.55 19.66Q76.85 19.66 75.97 18.97Q75.10 18.29 74.80 17.04Q74.50 15.79 74.50 14.14L74.50 14.14L74.50 10.94Q74.50 9.19 74.81 7.96Q75.12 6.72 76.00 6.06Q76.87 5.40 78.55 5.40L78.55 5.40Q80.06 5.40 80.89 5.89Q81.72 6.38 82.03 7.36Q82.34 8.33 82.34 9.77L82.34 9.77L82.34 10.58L80.02 10.58L80.02 9.74Q80.02 8.83 79.90 8.30Q79.78 7.78 79.46 7.54Q79.15 7.30 78.58 7.30L78.58 7.30Q77.95 7.30 77.62 7.58Q77.28 7.87 77.17 8.56Q77.06 9.24 77.06 10.42L77.06 10.42L77.06 14.78Q77.06 16.56 77.40 17.16Q77.74 17.76 78.60 17.76L78.60 17.76Q79.25 17.76 79.55 17.46Q79.85 17.16 79.93 16.61Q80.02 16.06 80.02 15.36L80.02 15.36L80.02 14.23L82.34 14.23L82.34 15.19Q82.34 16.58 82.02 17.59Q81.70 18.60 80.87 19.13Q80.04 19.66 78.55 19.66ZM87.24 19.44L84.67 19.44L84.67 0L87.24 0L87.24 11.59L90.98 5.59L93.67 5.59L90.41 11.02L93.58 19.46L91.01 19.46L88.42 12.36L87.24 14.14L87.24 19.44ZM98.76 19.66L98.76 19.66Q97.13 19.66 96.24 19.02Q95.35 18.38 95.00 17.15Q94.66 15.91 94.66 14.11L94.66 14.11L94.66 10.94Q94.66 9.10 95.02 7.87Q95.38 6.65 96.28 6.02Q97.18 5.40 98.76 5.40L98.76 5.40Q100.51 5.40 101.34 6.12Q102.17 6.84 102.43 8.20Q102.70 9.55 102.70 11.45L102.70 11.45L102.70 12.58L97.22 12.58L97.22 15.36Q97.22 16.20 97.38 16.73Q97.54 17.26 97.88 17.51Q98.23 17.76 98.78 17.76L98.78 17.76Q99.36 17.76 99.66 17.48Q99.96 17.21 100.07 16.69Q100.18 16.18 100.18 15.48L100.18 15.48L100.18 14.64L102.67 14.64L102.67 15.17Q102.67 17.26 101.78 18.46Q100.90 19.66 98.76 19.66ZM97.22 10.44L97.22 11.18L100.18 11.18L100.18 9.94Q100.18 9.07 100.08 8.48Q99.98 7.90 99.68 7.60Q99.38 7.30 98.74 7.30L98.74 7.30Q98.11 7.30 97.79 7.58Q97.46 7.87 97.34 8.56Q97.22 9.24 97.22 10.44L97.22 10.44ZM107.66 19.46L105.10 19.46L105.10 5.59L107.66 5.59L107.66 7.56Q108.43 6.29 109.20 5.86Q109.97 5.42 110.74 5.42L110.74 5.42Q110.83 5.42 110.92 5.42Q111 5.42 111.14 5.45L111.14 5.45L111.14 8.28Q110.86 8.16 110.48 8.08Q110.11 7.99 109.73 7.99L109.73 7.99Q109.13 7.99 108.64 8.27Q108.14 8.54 107.66 9.34L107.66 9.34L107.66 19.46Z" transform="translate(36, 8.268)"></path></svg>