<svg xmlns="http://www.w3.org/2000/svg" width="400" height="400" preserveAspectRatio="xMidYMid meet" version="1.0" viewBox="0 0 300 300"><metadata>Created by potrace 1.14, written by Peter Selinger 2001-2017</metadata><g fill="#000" stroke="none"><path d="M1290 2983 c-598 -83 -1098 -532 -1244 -1118 -35 -140 -41 -201 -40 -385 1 -127 6 -189 23 -268 65 -309 196 -554 412 -772 78 -77 224 -195 259 -208 8 -3 17 -8 20 -11 19 -22 195 -105 295 -139 172 -59 279 -76 485 -75 153 0 203 4 290 22 472 100 847 389 1057 816 62 124 113 285 129 400 3 22 9 64 13 92 9 57 7 313 -3 352 -3 12 -8 42 -10 66 -12 99 -75 292 -133 410 -150 300 -406 550 -706 689 -121 56 -267 103 -377 121 -19 3 -46 8 -60 11 -52 11 -319 10 -410 -3z" transform="translate(0.000000,300.000000) scale(0.100000,-0.100000)"/></g></svg>